<svg width="28" height="32" viewBox="0 0 28 32" fill="none" xmlns="http://www.w3.org/2000/svg">
<path d="M2.44226 10.3652C1.8909 10.3652 1.42309 10.5575 1.03855 10.9421C0.654001 11.3266 0.46167 11.788 0.46167 12.3266V20.5958C0.46167 21.1478 0.653943 21.6152 1.03855 21.9998C1.42309 22.3844 1.8909 22.5767 2.44226 22.5767C2.99321 22.5767 3.45818 22.3844 3.83677 21.9998C4.2146 21.6153 4.40404 21.1478 4.40404 20.5958V12.3266C4.40404 11.788 4.21177 11.3266 3.82716 10.9421C3.44256 10.5575 2.98083 10.3652 2.44226 10.3652Z" fill="#1F2937"/>
<path d="M18.3656 2.94205L19.731 0.423241C19.8206 0.256486 19.7887 0.128612 19.6351 0.0386963C19.4682 -0.0388377 19.3401 0.00045004 19.2505 0.153782L17.866 2.69273C16.6477 2.1541 15.3592 1.88429 14.0005 1.88429C12.6414 1.88429 11.3528 2.15416 10.135 2.69273L8.75045 0.153782C8.66047 0.00045004 8.53231 -0.0384905 8.3659 0.0386963C8.21187 0.129017 8.17999 0.256486 8.26997 0.423241L9.63543 2.94205C8.25087 3.64813 7.14815 4.63148 6.32768 5.89424C5.50721 7.1577 5.0968 8.53838 5.0968 10.0387H22.8848C22.8848 8.53873 22.4744 7.15799 21.6539 5.89424C20.8334 4.63148 19.7371 3.64813 18.3656 2.94205ZM10.4714 6.6057C10.3237 6.75371 10.1474 6.82737 9.94239 6.82737C9.73698 6.82737 9.5642 6.75371 9.42325 6.6057C9.2823 6.45839 9.21183 6.28272 9.21183 6.07703C9.21183 5.87202 9.2823 5.69601 9.42325 5.54835C9.5642 5.40103 9.73738 5.32738 9.94239 5.32738C10.1474 5.32738 10.3237 5.40103 10.4714 5.54835C10.6187 5.69636 10.6927 5.87202 10.6927 6.07703C10.6923 6.28238 10.6184 6.45839 10.4714 6.6057ZM18.5769 6.6057C18.4357 6.75371 18.2625 6.82737 18.0579 6.82737C17.8524 6.82737 17.6761 6.75371 17.5287 6.6057C17.3811 6.45839 17.3075 6.28272 17.3075 6.07703C17.3075 5.87202 17.3811 5.69601 17.5287 5.54835C17.6761 5.40103 17.8524 5.32738 18.0579 5.32738C18.2629 5.32738 18.4357 5.40103 18.5769 5.54835C18.718 5.69636 18.7884 5.87202 18.7884 6.07703C18.7884 6.28238 18.718 6.45839 18.5769 6.6057Z" fill="#1F2937"/>
<path d="M5.1731 23.5383C5.1731 24.1286 5.3781 24.6283 5.78816 25.0383C6.19857 25.4484 6.69826 25.6534 7.28815 25.6534H8.7113L8.7308 30.0193C8.7308 30.5706 8.92308 31.0387 9.30762 31.4233C9.69217 31.8079 10.154 32.0002 10.6922 32.0002C11.2432 32.0002 11.7113 31.8079 12.0959 31.4233C12.4805 31.0387 12.6728 30.5706 12.6728 30.0193V25.6538H15.3265V30.0193C15.3265 30.5706 15.5187 31.0387 15.9033 31.4233C16.2879 31.8079 16.7556 32.0002 17.307 32.0002C17.858 32.0002 18.3261 31.8079 18.7107 31.4233C19.0954 31.0387 19.2876 30.5706 19.2876 30.0193V25.6538H20.7299C21.3067 25.6538 21.8 25.4487 22.2108 25.0387C22.6208 24.6286 22.826 24.1289 22.826 23.5387V10.7305H5.1731V23.5383Z" fill="#1F2937"/>
<path d="M25.5579 10.3652C25.0192 10.3652 24.5579 10.5547 24.1733 10.9325C23.7887 11.311 23.5964 11.776 23.5964 12.3266V20.5958C23.5964 21.1478 23.7887 21.6152 24.1733 21.9998C24.5579 22.3844 25.0196 22.5767 25.5579 22.5767C26.1089 22.5767 26.577 22.3844 26.9616 21.9998C27.3462 21.6152 27.5384 21.1478 27.5384 20.5958V12.3266C27.5384 11.7759 27.3462 11.311 26.9616 10.9325C26.577 10.5547 26.1089 10.3652 25.5579 10.3652Z" fill="#1F2937"/>
</svg>
