<svg width="28" height="32" viewBox="0 0 28 32" fill="none" xmlns="http://www.w3.org/2000/svg">
<path d="M22.7684 17.9371C21.8881 13.5071 26.093 10.909 26.093 10.909C26.093 10.909 24.4547 8.53877 21.7014 7.92901C18.9494 7.31793 17.5721 8.08142 16.1975 8.65406C14.8215 9.22809 14.1349 9.22809 14.1349 9.22809C12.1492 9.22809 10.6977 7.12567 6.91446 8.08282C4.30809 8.74057 1.56433 11.7494 1.0686 15.3404C0.572865 18.9327 1.64264 23.5166 3.70521 27.0692C5.76779 30.6245 7.86888 31.9606 9.36015 31.9991C10.8515 32.0361 12.3401 30.9307 14.1349 30.6615C15.9311 30.3951 17.0365 31.3125 18.7984 31.8082C20.5533 32.3026 21.1686 31.8439 23.1899 30.1246C25.2168 28.4053 27.0515 23.4741 27.0515 23.4741C27.0515 23.4741 23.6486 22.3699 22.7684 17.9371Z" fill="#1F2937"/>
<path d="M18.871 5.06308C20.821 3.07607 20.1605 0 20.1605 0C20.1605 0 17.4223 0.480646 15.5876 2.38941C13.7544 4.29958 14.0578 7.31658 14.0578 7.31658C14.0578 7.31658 16.921 7.04881 18.871 5.06308Z" fill="#1F2937"/>
</svg>
