<svg width="24" height="25" viewBox="0 0 24 25" fill="none" xmlns="http://www.w3.org/2000/svg">
<path d="M19.2 20.1319C19.8365 20.1319 20.447 20.3844 20.8971 20.8338C21.3471 21.2833 21.6 21.8928 21.6 22.5284C21.6 23.164 21.3471 23.7736 20.8971 24.223C20.447 24.6725 19.8365 24.925 19.2 24.925C18.5635 24.925 17.953 24.6725 17.5029 24.223C17.0529 23.7736 16.8 23.164 16.8 22.5284C16.8 21.1983 17.868 20.1319 19.2 20.1319ZM0 0.959595H3.924L5.052 3.35613H22.8C23.1183 3.35613 23.4235 3.48238 23.6485 3.7071C23.8736 3.93182 24 4.2366 24 4.5544C24 4.75811 23.94 4.96181 23.856 5.15353L19.56 12.9063C19.152 13.6373 18.36 14.1405 17.46 14.1405H8.52L7.44 16.0937L7.404 16.2375C7.404 16.317 7.43561 16.3932 7.49187 16.4493C7.54813 16.5055 7.62444 16.5371 7.704 16.5371H21.6V18.9336H7.2C6.56348 18.9336 5.95303 18.6811 5.50294 18.2317C5.05286 17.7823 4.8 17.1727 4.8 16.5371C4.8 16.1177 4.908 15.7223 5.088 15.3867L6.72 12.451L2.4 3.35613H0V0.959595ZM7.2 20.1319C7.83652 20.1319 8.44697 20.3844 8.89706 20.8338C9.34714 21.2833 9.6 21.8928 9.6 22.5284C9.6 23.164 9.34714 23.7736 8.89706 24.223C8.44697 24.6725 7.83652 24.925 7.2 24.925C6.56348 24.925 5.95303 24.6725 5.50294 24.223C5.05286 23.7736 4.8 23.164 4.8 22.5284C4.8 21.1983 5.868 20.1319 7.2 20.1319ZM18 11.744L21.336 5.75267H6.168L9 11.744H18Z" fill="black"/>
</svg>
