<svg width="50" height="32" viewBox="0 0 50 32" fill="none" xmlns="http://www.w3.org/2000/svg">
<g id="Amazon" clip-path="url(#clip0_27_630)">
<g id="Amazon_2">
<rect id="Rectangle" width="50" height="32" rx="3" fill="#333333"/>
<g id="Group">
<g id="Group_2">
<path id="Vector" fill-rule="evenodd" clip-rule="evenodd" d="M29.5985 20.5441C27.3751 22.1611 24.1916 23.0202 21.4628 23.0202C17.6224 23.0202 14.1357 21.6053 11.508 19.2303C11.3059 19.0282 11.5081 18.7755 11.7102 18.9271C14.54 20.5947 18.0772 21.5548 21.665 21.5548C24.0905 21.5548 26.8192 21.0494 29.2953 19.9883C29.649 19.8872 29.9522 20.2915 29.5985 20.5441Z" fill="#FF9201"/>
<path id="Vector_2" fill-rule="evenodd" clip-rule="evenodd" d="M30.5081 19.483C30.2049 19.1293 28.6384 19.3314 27.9309 19.3819C27.7288 19.4324 27.6783 19.2303 27.8804 19.0787C29.1437 18.1692 31.2155 18.4723 31.4681 18.725C31.7208 19.0282 31.4176 21.1 30.2048 22.1106C30.0027 22.2622 29.8511 22.1612 29.9522 21.959C30.1543 21.3527 30.7607 19.8872 30.5081 19.483Z" fill="#FF9201"/>
</g>
<path id="Vector_3" fill-rule="evenodd" clip-rule="evenodd" d="M27.9814 12.8634V12.0044C27.9814 11.8528 28.0824 11.8022 28.1835 11.8022H32.0239C32.125 11.8022 32.226 11.9033 32.226 12.0044V12.7624C32.226 12.8634 32.125 13.0655 31.9229 13.3182L29.9016 16.1985C30.6596 16.1985 31.4175 16.2996 32.125 16.6533C32.2766 16.7544 32.3271 16.8554 32.3271 17.007V17.9166C32.3271 18.0177 32.1755 18.1693 32.0239 18.1187C30.8112 17.5124 29.2447 17.4113 27.9308 18.1187C27.7792 18.1693 27.6782 18.0682 27.6782 17.9166V17.007C27.6782 16.8554 27.6782 16.6533 27.8298 16.4007L30.1542 13.0655H28.133C28.0824 13.0655 27.9814 12.9645 27.9814 12.8634Z" fill="white"/>
<path id="Vector_4" fill-rule="evenodd" clip-rule="evenodd" d="M13.883 18.2198H12.7208C12.6197 18.2198 12.5186 18.1187 12.5186 18.0177V12.0044C12.5186 11.9033 12.6197 11.8022 12.7208 11.8022H13.8325C13.9335 11.8022 14.0346 11.9033 14.0346 12.0044V12.8129C14.3378 12.0549 14.8431 11.7012 15.6011 11.7012C16.3591 11.7012 16.8138 12.0549 17.117 12.8129C17.4202 12.0549 18.0266 11.7012 18.7341 11.7012C19.2394 11.7012 19.7447 11.9033 20.0984 12.3581C20.4521 12.8634 20.4016 13.6214 20.4016 14.2278V18.0177C20.4016 18.1187 20.3005 18.2198 20.1995 18.2198H19.0372C18.9362 18.2198 18.8351 18.1187 18.8351 18.0177V14.8341C18.8351 14.5815 18.8351 13.9246 18.7846 13.7224C18.6835 13.3182 18.4308 13.2171 18.0771 13.2171C17.7739 13.2171 17.4708 13.4193 17.3697 13.7224C17.2686 14.0256 17.2686 14.531 17.2686 14.8847V18.0682C17.2686 18.1693 17.1676 18.2703 17.0665 18.2703H15.9043C15.8032 18.2703 15.7022 18.1693 15.7022 18.0682V14.8847C15.7022 14.2278 15.8032 13.2171 14.9947 13.2171C14.1356 13.2171 14.1862 14.1772 14.1862 14.8847V18.0682C14.0851 18.1187 13.984 18.2198 13.883 18.2198Z" fill="white"/>
<path id="Vector_5" fill-rule="evenodd" clip-rule="evenodd" d="M35.6117 11.6504C37.3804 11.6504 38.2899 13.1664 38.2899 15.036C38.2899 16.8552 37.2288 18.3206 35.6117 18.3206C33.8937 18.3206 32.9841 16.8046 32.9841 14.935C32.9335 13.1158 33.8937 11.6504 35.6117 11.6504ZM35.6117 12.9137C34.7527 12.9137 34.7022 14.0759 34.7022 14.8339C34.7022 15.5919 34.7022 17.1584 35.6117 17.1584C36.5213 17.1584 36.5719 15.8951 36.5719 15.1371C36.5719 14.6318 36.5719 14.0254 36.4203 13.5201C36.2687 13.0653 35.9655 12.9137 35.6117 12.9137Z" fill="white"/>
<path id="Vector_6" fill-rule="evenodd" clip-rule="evenodd" d="M40.5638 18.2195H39.4016C39.3005 18.2195 39.1995 18.1185 39.1995 18.0174V12.0041C39.1995 11.9031 39.3005 11.802 39.4016 11.802H40.5133C40.6143 11.802 40.7154 11.8525 40.7154 11.9536V12.8632C41.0691 12.0547 41.5239 11.6504 42.3324 11.6504C42.8377 11.6504 43.3936 11.8525 43.6968 12.3578C44 12.8632 44 13.6717 44 14.2275V18.0174C44 18.1185 43.8989 18.2195 43.7979 18.2195H42.6356C42.5346 18.2195 42.4335 18.1185 42.4335 18.0174V14.7328C42.4335 14.0759 42.5346 13.1158 41.6755 13.1158C41.3723 13.1158 41.1197 13.3179 41.0186 13.6211C40.867 13.9749 40.8165 14.3791 40.8165 14.7834V18.0174C40.7659 18.1185 40.6649 18.2195 40.5638 18.2195Z" fill="white"/>
<path id="Vector_7" fill-rule="evenodd" clip-rule="evenodd" d="M24.8989 15.3395C24.8989 15.7942 24.8989 16.1985 24.6968 16.6028C24.4946 16.9565 24.1914 17.1586 23.8882 17.1586C23.4334 17.1586 23.1808 16.8049 23.1808 16.2996C23.1808 15.2889 24.0904 15.1373 24.9494 15.1373V15.3395H24.8989ZM26.0611 18.2198C25.9601 18.2703 25.859 18.2703 25.8085 18.2703C25.4042 17.9671 25.3537 17.8155 25.1515 17.4618C24.4946 18.1187 24.0398 18.3208 23.2313 18.3208C22.2207 18.3208 21.4627 17.7145 21.4627 16.5017C21.4627 15.5416 21.968 14.8847 22.726 14.5815C23.3829 14.2783 24.242 14.2278 24.9494 14.1772V14.0256C24.9494 13.7224 24.9494 13.4192 24.7978 13.1666C24.6462 12.9645 24.3936 12.8634 24.1409 12.8634C23.6861 12.8634 23.2819 13.1161 23.1808 13.5708C23.1808 13.6719 23.0797 13.773 22.9787 13.773L21.8164 13.6719C21.7154 13.6719 21.6143 13.5708 21.6648 13.4192C21.9175 12.0549 23.1808 11.6001 24.2925 11.6001C24.8484 11.6001 25.6063 11.7517 26.0611 12.2065C26.617 12.7623 26.5664 13.4698 26.5664 14.2278V16.0469C26.5664 16.6028 26.8191 16.8554 27.0212 17.1586C27.0717 17.2597 27.1223 17.4113 27.0212 17.4618C26.718 17.6639 26.3138 18.0176 26.0611 18.2198Z" fill="white"/>
<path id="Vector_8" fill-rule="evenodd" clip-rule="evenodd" d="M9.48668 15.3395C9.48668 15.7942 9.4867 16.1985 9.28457 16.6028C9.08245 16.9565 8.77924 17.1586 8.47604 17.1586C8.02126 17.1586 7.76862 16.8049 7.76862 16.2996C7.76862 15.2889 8.67819 15.1373 9.53723 15.1373V15.3395H9.48668ZM10.6489 18.2198C10.5479 18.2703 10.4468 18.2703 10.3457 18.2703C9.94148 17.9671 9.89095 17.8155 9.68882 17.4618C9.03191 18.1187 8.57713 18.3208 7.76862 18.3208C6.75798 18.3208 6 17.7145 6 16.5017C6 15.5416 6.50532 14.8847 7.2633 14.5815C7.92021 14.2783 8.77924 14.2278 9.48668 14.1772V14.0256C9.48668 13.7224 9.48669 13.4192 9.33509 13.1666C9.1835 12.9645 8.93084 12.8634 8.67818 12.8634C8.2234 12.8634 7.81913 13.1161 7.71807 13.5708C7.71807 13.6719 7.61702 13.773 7.51596 13.773L6.35371 13.6719C6.25265 13.6719 6.15159 13.5708 6.20212 13.4192C6.45478 12.0549 7.71807 11.6001 8.82977 11.6001C9.38563 11.6001 10.1436 11.7517 10.5984 12.2065C11.1542 12.7623 11.1037 13.4698 11.1037 14.2278V16.0469C11.1037 16.6028 11.3564 16.8554 11.5585 17.1586C11.609 17.2597 11.6596 17.4113 11.5585 17.4618C11.3059 17.6639 10.9016 18.0176 10.6489 18.2198Z" fill="white"/>
</g>
</g>
</g>
<defs>
<clipPath id="clip0_27_630">
<rect width="50" height="32" fill="white"/>
</clipPath>
</defs>
</svg>
