<svg width="50" height="32" viewBox="0 0 50 32" fill="none" xmlns="http://www.w3.org/2000/svg">
<g id="Google Pay" clip-path="url(#clip0_27_542)">
<g id="Google Pay_2">
<rect id="Rectangle" width="50" height="32" rx="3" fill="#5485EC"/>
<g id="Group">
<path id="Vector" d="M23.9713 16.827V21.2502H22.5681V10.3269H26.2897C26.7339 10.3176 27.1756 10.3964 27.5892 10.5587C28.0028 10.721 28.3802 10.9636 28.6996 11.2726C29.0222 11.5627 29.2789 11.9186 29.4525 12.3162C29.6262 12.7138 29.7127 13.144 29.7062 13.5778C29.7155 14.014 29.6303 14.447 29.4565 14.8472C29.2828 15.2473 29.0246 15.6052 28.6996 15.8962C28.0488 16.5168 27.2455 16.8268 26.2897 16.8262H23.9713V16.827ZM23.9713 11.6717V15.4848H26.3246C26.5825 15.4925 26.8393 15.4462 27.0784 15.3489C27.3174 15.2517 27.5336 15.1056 27.713 14.9201C27.8914 14.7466 28.0333 14.539 28.1301 14.3098C28.227 14.0805 28.2769 13.8341 28.2769 13.5853C28.2769 13.3364 28.227 13.09 28.1301 12.8607C28.0333 12.6315 27.8914 12.4239 27.713 12.2505C27.5358 12.061 27.3204 11.9113 27.0811 11.8114C26.8417 11.7115 26.5838 11.6636 26.3246 11.6709H23.9713V11.6717Z" fill="white"/>
<path id="Vector_2" d="M32.9399 13.5327C33.977 13.5327 34.7957 13.8099 35.3959 14.3642C35.9962 14.9185 36.296 15.6785 36.2954 16.6442V21.2504H34.9532V20.2133H34.8922C34.3111 21.0674 33.5383 21.4945 32.5738 21.4945C31.7505 21.4945 31.0616 21.2504 30.5073 20.7624C30.2413 20.5383 30.0286 20.2578 29.8848 19.9412C29.7409 19.6245 29.6696 19.2798 29.6759 18.9321C29.6759 18.1587 29.9681 17.5437 30.5527 17.087C31.1372 16.6303 31.9175 16.4013 32.8937 16.4002C33.7269 16.4002 34.4131 16.5527 34.9523 16.8577V16.537C34.9539 16.3 34.9027 16.0655 34.8025 15.8507C34.7022 15.6359 34.5554 15.4461 34.3727 15.295C34.0017 14.9602 33.5181 14.7776 33.0183 14.7834C32.2345 14.7834 31.6142 15.114 31.1575 15.7753L29.9216 14.9969C30.6015 14.0208 31.6075 13.5327 32.9399 13.5327ZM31.1244 18.9626C31.1235 19.1412 31.1652 19.3174 31.2462 19.4766C31.3271 19.6358 31.4449 19.7733 31.5898 19.8777C31.9002 20.1218 32.2854 20.2512 32.6801 20.2438C33.2723 20.2428 33.8399 20.0071 34.2586 19.5884C34.7234 19.1508 34.9558 18.6375 34.9558 18.0483C34.5183 17.6997 33.9082 17.5254 33.1255 17.5254C32.5555 17.5254 32.0802 17.6628 31.6996 17.9376C31.3153 18.2165 31.1244 18.5555 31.1244 18.9626Z" fill="white"/>
<path id="Vector_3" d="M44 13.7769L39.3144 24.5451H37.8659L39.6047 20.7773L36.5237 13.7769H38.0489L40.2758 19.1457H40.3063L42.4721 13.7769H44Z" fill="white"/>
<g id="Group_2">
<path id="Vector_4" d="M18.301 15.8736C18.3015 15.446 18.2653 15.0191 18.1929 14.5977H12.275V17.0145H15.6645C15.5951 17.4005 15.4483 17.7685 15.2329 18.0962C15.0175 18.424 14.738 18.7047 14.4112 18.9215V20.4903H16.4341C17.6185 19.3982 18.301 17.7832 18.301 15.8736Z" fill="white"/>
<path id="Vector_5" d="M12.275 22.0059C13.9684 22.0059 15.3943 21.4498 16.4341 20.4911L14.4112 18.9223C13.8482 19.304 13.123 19.5219 12.275 19.5219C10.6382 19.5219 9.24892 18.4185 8.75213 16.9316H6.66821V18.5484C7.19051 19.5877 7.9914 20.4614 8.98147 21.072C9.97154 21.6825 11.1118 22.0058 12.275 22.0059Z" fill="white"/>
<path id="Vector_6" d="M8.75212 16.9319C8.48948 16.1527 8.48948 15.309 8.75212 14.5298V12.9131H6.6682C6.22883 13.7874 6 14.7524 6 15.7309C6 16.7094 6.22883 17.6743 6.6682 18.5486L8.75212 16.9319Z" fill="white"/>
<path id="Vector_7" d="M12.2751 11.9395C13.17 11.9248 14.0347 12.263 14.6823 12.8807L16.4734 11.0897C15.3377 10.0229 13.8331 9.43729 12.2751 9.45549C11.1119 9.45554 9.9716 9.77889 8.98153 10.3894C7.99147 11 7.19057 11.8737 6.66827 12.913L8.75219 14.5297C9.24898 13.0429 10.6383 11.9395 12.2751 11.9395Z" fill="white"/>
</g>
</g>
</g>
</g>
<defs>
<clipPath id="clip0_27_542">
<rect width="50" height="32" fill="white"/>
</clipPath>
</defs>
</svg>
