<svg width="50" height="32" viewBox="0 0 50 32" fill="none" xmlns="http://www.w3.org/2000/svg">
<g clip-path="url(#clip0_27_581)">
<rect width="50" height="32" rx="3" fill="#0D0D0D"/>
<path d="M4.5625 13.9025H5.57747L5.81961 15.7044H5.82731L6.09388 13.9025H7.26739L7.53302 15.7044H7.54072L7.78343 13.9025H8.79839L8.18036 16.7664H6.95011L6.68486 14.9111H6.67716L6.41135 16.7664H5.18148L4.5625 13.9025Z" fill="#FDDF12"/>
<path d="M9.46082 13.9025H11.6392V14.6493H10.5479V14.9538H11.5558V15.6999H10.5479V16.0211H11.6747V16.7664H9.46082V13.9025Z" fill="#FDDF12"/>
<path d="M13.9635 14.716C13.9592 14.5375 13.8602 14.4778 13.7133 14.4778C13.5312 14.4778 13.4512 14.5571 13.4512 14.645C13.4512 14.7472 13.5187 14.7911 13.6376 14.827C13.8558 14.8911 14.2564 14.9696 14.5456 15.093C14.9074 15.2433 15.0656 15.5018 15.0656 15.8463C15.0656 16.5485 14.4947 16.8423 13.6847 16.8423C12.9947 16.8423 12.3604 16.6281 12.3604 15.8822H13.4475C13.4475 15.9622 13.4636 16.0411 13.507 16.101C13.5504 16.1557 13.622 16.1914 13.7289 16.1914C13.8953 16.1914 14.0031 16.0843 14.0031 15.9577C14.0031 15.851 13.9197 15.7956 13.8121 15.7634L13.0068 15.5258C12.567 15.3947 12.4126 15.1283 12.4126 14.7599C12.4126 14.1646 12.8925 13.8274 13.7289 13.8274C14.4427 13.8274 14.979 14.0502 14.979 14.716H13.9635Z" fill="#FDDF12"/>
<path d="M16.3862 14.6731H15.6807V13.9025H18.2268V14.6731H17.5207V16.7661H16.3862V14.6731Z" fill="#FDDF12"/>
<path d="M18.9642 13.9025H21.1422V14.6493H20.0519V14.9538H21.0592V15.6999H20.0519V16.0211H21.1785V16.7664H18.9642V13.9025Z" fill="#FDDF12"/>
<path d="M21.9874 13.9025H23.6813C24.2961 13.9025 24.6572 14.0896 24.6572 14.6295C24.6572 14.9586 24.518 15.2076 24.0889 15.3114V15.3191C24.3671 15.3432 24.518 15.4655 24.5732 15.6845C24.6365 15.93 24.6294 16.3345 24.7598 16.7664H23.6495C23.5825 16.5524 23.5466 16.1915 23.5064 15.9462C23.4835 15.8027 23.4115 15.7482 23.2291 15.7482H23.0978V16.7664H21.9874V13.9025ZM23.1931 15.0967C23.4115 15.0967 23.5701 15.0214 23.5701 14.8078C23.5701 14.5976 23.423 14.5536 23.2004 14.5536H23.0978V15.0967H23.1931Z" fill="#FDDF12"/>
<path d="M25.5184 13.9025H26.8783L27.4843 15.6366H27.493V13.9025H28.4134V16.7664H27.0536L26.4461 15.0214H26.438V16.7664H25.5184V13.9025Z" fill="#FDDF12"/>
<path d="M15.0417 19.236C15.0417 19.9268 14.5457 20.2722 13.6814 20.2722C12.8165 20.2722 12.3212 19.9268 12.3212 19.236V17.3329H13.4552V19.1887C13.4552 19.4147 13.5625 19.5031 13.6814 19.5031C13.8003 19.5031 13.9076 19.4147 13.9076 19.1887V17.3329H15.0417V19.236Z" fill="#FDDF12"/>
<path d="M15.9507 17.3329H17.3111L17.9175 19.0666H17.9256V17.3329H18.8455V20.1973H17.4853L16.8791 18.4512H16.87V20.1973H15.9507V17.3329Z" fill="#FDDF12"/>
<path d="M19.7748 17.3329H20.9079V20.1973H19.7748V17.3329Z" fill="#FDDF12"/>
<path d="M23.2124 17.2576C24.2003 17.2576 24.6923 17.872 24.6923 18.7647C24.6923 19.657 24.2003 20.2722 23.2124 20.2722C22.2251 20.2722 21.7336 19.657 21.7336 18.7647C21.7336 17.872 22.2251 17.2576 23.2124 17.2576ZM23.2124 19.5264C23.3881 19.5264 23.5177 19.4269 23.5177 18.7647C23.5177 18.1179 23.3956 18.003 23.2124 18.003C23.0306 18.003 22.9073 18.1179 22.9073 18.7647C22.9073 19.4269 23.0392 19.5264 23.2124 19.5264Z" fill="#FDDF12"/>
<path d="M25.5184 17.3329H26.8783L27.4843 19.0666H27.493V17.3329H28.4134V20.1973H27.0536L26.4461 18.4512H26.438V20.1973H25.5184V17.3329Z" fill="#FDDF12"/>
<path d="M39.0916 13.8619H38.6082L38.067 17.8817H38.0495L37.4569 13.8619H34.8382L34.244 17.8817H34.2269L33.6872 13.8619H31.4229L32.8032 20.25H35.5472L36.1393 16.1116H36.1573L36.7492 20.25H39.4932L39.6307 19.6111C39.2798 19.2384 39.0916 18.7389 39.0916 18.1083V13.8619Z" fill="#FDDF12"/>
<path d="M39.0916 13.8618V18.1083C39.0916 18.7389 39.2798 19.2384 39.6307 19.6111L40.872 13.8618H39.0916Z" fill="white"/>
<path d="M42.6303 13.8619V18.0028C42.6303 18.5068 42.3912 18.7031 42.1259 18.7031C41.8607 18.7031 41.6216 18.5068 41.6216 18.0028V13.8619H41.0817L39.8065 19.7701C40.3239 20.2005 41.1072 20.4197 42.1259 20.4197C44.0544 20.4197 45.1607 19.6487 45.1607 18.1083V13.8619H42.6303Z" fill="#FDDF12"/>
<path d="M29.7627 13.8619H29.3859L30.742 20.25H31.1192L29.7627 13.8619Z" fill="#FDDF12"/>
<path d="M31.7727 20.25H32.1497L30.7934 13.8619H30.4167L31.7727 20.25Z" fill="#FDDF12"/>
<path d="M45.9245 14.1674C45.9211 14.1246 45.898 14.1034 45.8542 14.1034C45.8206 14.1034 45.7866 14.121 45.7866 14.158C45.7866 14.2037 45.8278 14.2091 45.864 14.2178C45.9286 14.2343 46.0235 14.2525 46.0235 14.3373C46.0235 14.4423 45.932 14.4785 45.8411 14.4785C45.7445 14.4785 45.676 14.4411 45.6788 14.3344H45.7714C45.768 14.3812 45.7951 14.413 45.8424 14.413C45.8787 14.413 45.9269 14.4019 45.9269 14.3568C45.9269 14.3068 45.8665 14.3032 45.83 14.294C45.771 14.2794 45.6899 14.2525 45.6899 14.1774C45.6899 14.0808 45.7791 14.0378 45.8659 14.0378C45.948 14.0378 46.0119 14.0823 46.0119 14.1674H45.9245Z" fill="#FDDF12"/>
<path d="M46.3581 14.4695H46.2824L46.1706 14.1064L46.1693 14.1075V14.4695H46.0842V14.0464H46.2332L46.3217 14.3541H46.3228L46.419 14.0464H46.5625V14.4695H46.4776V14.1075L46.4767 14.1064L46.3581 14.4695Z" fill="#FDDF12"/>
</g>
<defs>
<clipPath id="clip0_27_581">
<rect width="50" height="32" fill="white"/>
</clipPath>
</defs>
</svg>
