<svg width="456" height="72" viewBox="0 0 456 72" fill="none" xmlns="http://www.w3.org/2000/svg">
<g clip-path="url(#clip0_27_519)">
<rect width="50" height="32" rx="3" fill="#0F3560"/>
<path d="M29.3632 23.8647H20.614V8.14087H29.3632V23.8647Z" fill="#FF5F00"/>
<path d="M21.1745 16.0015C21.1745 12.8118 22.6679 9.97057 24.9936 8.13955C23.2929 6.80063 21.1465 6.00147 18.8139 6.00147C13.2916 6.00147 8.81519 10.4785 8.81519 16.0015C8.81519 21.5244 13.2916 26.0015 18.8139 26.0015C21.1465 26.0015 23.2929 25.2023 24.9936 23.8634C22.6679 22.0324 21.1745 19.1911 21.1745 16.0015Z" fill="#EB001B"/>
<path d="M41.1631 16.0015C41.1631 21.5244 36.6867 26.0015 31.1644 26.0015C28.8317 26.0015 26.6854 25.2023 24.9841 23.8634C27.3103 22.0324 28.8038 19.1911 28.8038 16.0015C28.8038 12.8118 27.3103 9.97057 24.9841 8.13955C26.6854 6.80063 28.8317 6.00147 31.1644 6.00147C36.6867 6.00147 41.1631 10.4785 41.1631 16.0015Z" fill="#F79E1B"/>
<path d="M16.3391 16.0648C16.3391 15.628 16.6254 15.2692 17.0931 15.2692C17.54 15.2692 17.8418 15.6126 17.8418 16.0648C17.8418 16.5171 17.54 16.8605 17.0931 16.8605C16.6254 16.8605 16.3391 16.5016 16.3391 16.0648ZM18.3512 16.0648V14.8223H17.8108V15.124C17.6394 14.9002 17.3794 14.7598 17.0259 14.7598C16.329 14.7598 15.7827 15.3061 15.7827 16.0648C15.7827 16.8242 16.329 17.3699 17.0259 17.3699C17.3794 17.3699 17.6394 17.2294 17.8108 17.0057V17.3074H18.3512V16.0648ZM36.6109 16.0648C36.6109 15.628 36.8972 15.2692 37.3649 15.2692C37.8124 15.2692 38.1136 15.6126 38.1136 16.0648C38.1136 16.5171 37.8124 16.8605 37.3649 16.8605C36.8972 16.8605 36.6109 16.5016 36.6109 16.0648ZM38.6235 16.0648V13.8243H38.0826V15.124C37.9112 14.9002 37.6512 14.7598 37.2977 14.7598C36.6008 14.7598 36.0545 15.3061 36.0545 16.0648C36.0545 16.8242 36.6008 17.3699 37.2977 17.3699C37.6512 17.3699 37.9112 17.2294 38.0826 17.0057V17.3074H38.6235V16.0648ZM25.0584 15.2436C25.4066 15.2436 25.6303 15.462 25.6874 15.8464H24.3979C24.4556 15.4876 24.6734 15.2436 25.0584 15.2436ZM25.0691 14.7598C24.3407 14.7598 23.8314 15.29 23.8314 16.0648C23.8314 16.8551 24.3616 17.3699 25.1054 17.3699C25.4798 17.3699 25.8225 17.2764 26.1242 17.0217L25.8594 16.6212C25.6511 16.7873 25.3857 16.8813 25.1364 16.8813C24.7883 16.8813 24.4711 16.72 24.3931 16.2725H26.2385C26.2439 16.2053 26.2492 16.1374 26.2492 16.0648C26.2439 15.29 25.7654 14.7598 25.0691 14.7598ZM31.5937 16.0648C31.5937 15.628 31.88 15.2692 32.3477 15.2692C32.7946 15.2692 33.0963 15.6126 33.0963 16.0648C33.0963 16.5171 32.7946 16.8605 32.3477 16.8605C31.88 16.8605 31.5937 16.5016 31.5937 16.0648ZM33.6057 16.0648V14.8223H33.0654V15.124C32.8934 14.9002 32.6339 14.7598 32.2805 14.7598C31.5836 14.7598 31.0373 15.3061 31.0373 16.0648C31.0373 16.8242 31.5836 17.3699 32.2805 17.3699C32.6339 17.3699 32.8934 17.2294 33.0654 17.0057V17.3074H33.6057V16.0648ZM28.5421 16.0648C28.5421 16.8188 29.067 17.3699 29.868 17.3699C30.2423 17.3699 30.4916 17.2866 30.7618 17.0735L30.5023 16.6367C30.2994 16.7825 30.0864 16.8605 29.8519 16.8605C29.4205 16.8551 29.1033 16.5433 29.1033 16.0648C29.1033 15.5864 29.4205 15.2746 29.8519 15.2692C30.0864 15.2692 30.2994 15.3472 30.5023 15.493L30.7618 15.0562C30.4916 14.8431 30.2423 14.7598 29.868 14.7598C29.067 14.7598 28.5421 15.3109 28.5421 16.0648ZM35.5088 14.7598C35.197 14.7598 34.9941 14.9056 34.8536 15.124V14.8223H34.3181V17.3074H34.859V15.9143C34.859 15.5031 35.0357 15.2746 35.3892 15.2746C35.4987 15.2746 35.613 15.29 35.7272 15.337L35.8939 14.8276C35.7742 14.7806 35.6183 14.7598 35.5088 14.7598ZM21.0237 15.0199C20.7637 14.8485 20.4054 14.7598 20.0103 14.7598C19.3807 14.7598 18.9754 15.0615 18.9754 15.5554C18.9754 15.9607 19.2771 16.2106 19.8329 16.2886L20.0882 16.3249C20.3846 16.3665 20.5244 16.4445 20.5244 16.5849C20.5244 16.7772 20.3269 16.8867 19.9579 16.8867C19.5836 16.8867 19.3134 16.767 19.1313 16.6266L18.8766 17.0473C19.173 17.2657 19.5473 17.3699 19.9525 17.3699C20.6702 17.3699 21.0862 17.0319 21.0862 16.5588C21.0862 16.122 20.7589 15.8935 20.218 15.8155L19.9633 15.7786C19.7294 15.7477 19.5419 15.7012 19.5419 15.5346C19.5419 15.3525 19.7187 15.2436 20.015 15.2436C20.3322 15.2436 20.6393 15.3632 20.7898 15.4567L21.0237 15.0199ZM27.9958 14.7598C27.684 14.7598 27.481 14.9056 27.3412 15.124V14.8223H26.8056V17.3074H27.346V15.9143C27.346 15.5031 27.5227 15.2746 27.8762 15.2746C27.9857 15.2746 28.0999 15.29 28.2142 15.337L28.3808 14.8276C28.2612 14.7806 28.1053 14.7598 27.9958 14.7598ZM23.3844 14.8223H22.5007V14.0683H21.9544V14.8223H21.4504V15.3162H21.9544V16.4499C21.9544 17.0265 22.1782 17.3699 22.8173 17.3699C23.0518 17.3699 23.322 17.2973 23.4933 17.1777L23.3374 16.7147C23.1762 16.8081 22.9994 16.8551 22.859 16.8551C22.5888 16.8551 22.5007 16.6885 22.5007 16.4391V15.3162H23.3844V14.8223ZM15.3049 17.3074V15.7477C15.3049 15.1603 14.9306 14.7652 14.3271 14.7598C14.01 14.7544 13.6827 14.8532 13.4535 15.202C13.2822 14.9264 13.012 14.7598 12.6323 14.7598C12.3669 14.7598 12.1075 14.8378 11.9045 15.1288V14.8223H11.3636V17.3074H11.9093V15.9298C11.9093 15.4983 12.1485 15.2692 12.5181 15.2692C12.8769 15.2692 13.0584 15.5031 13.0584 15.9244V17.3074H13.6047V15.9298C13.6047 15.4983 13.854 15.2692 14.2129 15.2692C14.5818 15.2692 14.7586 15.5031 14.7586 15.9244V17.3074H15.3049Z" fill="white"/>
</g>
<g clip-path="url(#clip1_27_519)">
<rect x="58" width="50" height="32" rx="3" fill="#082069"/>
<path d="M72.8739 20.9001H70.8012C70.6594 20.9001 70.5387 21.0032 70.5166 21.1432L69.6783 26.4581C69.6617 26.563 69.7429 26.6576 69.8493 26.6576H70.8388C70.9806 26.6576 71.1012 26.5545 71.1234 26.4142L71.3494 24.9807C71.3713 24.8404 71.4922 24.7373 71.6337 24.7373H72.2899C73.6552 24.7373 74.4432 24.0766 74.649 22.7674C74.7417 22.1946 74.6529 21.7445 74.3847 21.4293C74.0901 21.0832 73.5676 20.9001 72.8739 20.9001ZM73.113 22.8413C72.9997 23.585 72.4314 23.585 71.8819 23.585H71.5692L71.7886 22.1961C71.8016 22.1121 71.8744 22.0503 71.9592 22.0503H72.1026C72.4769 22.0503 72.8299 22.0503 73.0124 22.2637C73.1212 22.3909 73.1545 22.5801 73.113 22.8413Z" fill="white"/>
<path d="M79.0696 22.8167H78.077C77.9925 22.8167 77.9195 22.8786 77.9064 22.9625L77.8625 23.2401L77.7931 23.1395C77.5782 22.8276 77.099 22.7234 76.6208 22.7234C75.524 22.7234 74.5872 23.5541 74.4048 24.7194C74.3099 25.3007 74.4448 25.8565 74.7745 26.2441C75.077 26.6006 75.5097 26.7491 76.0247 26.7491C76.9084 26.7491 77.3985 26.1808 77.3985 26.1808L77.3542 26.4566C77.3376 26.5621 77.4188 26.6566 77.5246 26.6566H78.4186C78.5607 26.6566 78.6808 26.5536 78.7032 26.4133L79.2396 23.0162C79.2566 22.9116 79.1757 22.8167 79.0696 22.8167ZM77.6861 24.7485C77.5903 25.3155 77.1403 25.6962 76.5662 25.6962C76.278 25.6962 76.0477 25.6038 75.8998 25.4286C75.7531 25.2546 75.6973 25.007 75.744 24.7312C75.8334 24.169 76.2911 23.7759 76.8563 23.7759C77.1381 23.7759 77.3673 23.8696 77.5182 24.0463C77.6694 24.2248 77.7294 24.4739 77.6861 24.7485Z" fill="white"/>
<path d="M84.3557 22.8167H83.3583C83.2631 22.8167 83.1737 22.8639 83.1198 22.943L81.7441 24.9694L81.161 23.0221C81.1244 22.9003 81.0119 22.8167 80.8846 22.8167H79.9045C79.7854 22.8167 79.7027 22.933 79.7405 23.0452L80.8392 26.2692L79.8063 27.7273C79.7251 27.8421 79.8069 28 79.9472 28H80.9434C81.038 28 81.1265 27.954 81.1801 27.8764L84.4975 23.0879C84.5769 22.9733 84.4954 22.8167 84.3557 22.8167Z" fill="white"/>
<path d="M87.6578 20.8994H85.5848C85.4433 20.8994 85.3227 21.0025 85.3005 21.1425L84.4623 26.4574C84.4456 26.5623 84.5268 26.6568 84.6326 26.6568H85.6964C85.7952 26.6568 85.8797 26.5847 85.8952 26.4865L86.1331 24.9799C86.1549 24.8396 86.2758 24.7366 86.4174 24.7366H87.0732C88.4388 24.7366 89.2265 24.0759 89.4326 22.7666C89.5256 22.1938 89.4362 21.7438 89.168 21.4286C88.8737 21.0825 88.3515 20.8994 87.6578 20.8994ZM87.8969 22.8406C87.7839 23.5843 87.2156 23.5843 86.6659 23.5843H86.3534L86.5731 22.1953C86.5862 22.1114 86.6583 22.0496 86.7435 22.0496H86.8868C87.2608 22.0496 87.6142 22.0496 87.7966 22.2629C87.9054 22.3902 87.9385 22.5793 87.8969 22.8406Z" fill="white"/>
<path d="M93.8533 22.8167H92.8613C92.7762 22.8167 92.7037 22.8786 92.691 22.9625L92.6471 23.2401L92.5774 23.1395C92.3625 22.8276 91.8836 22.7234 91.4054 22.7234C90.3086 22.7234 89.3721 23.5541 89.1896 24.7194C89.0951 25.3007 89.2293 25.8565 89.5591 26.2441C89.8622 26.6006 90.2943 26.7491 90.8092 26.7491C91.693 26.7491 92.1831 26.1808 92.1831 26.1808L92.1388 26.4566C92.1221 26.5621 92.2034 26.6566 92.3097 26.6566H93.2035C93.345 26.6566 93.4656 26.5536 93.4878 26.4133L94.0245 23.0162C94.0409 22.9116 93.9597 22.8167 93.8533 22.8167ZM92.4698 24.7485C92.3746 25.3155 91.9239 25.6962 91.3499 25.6962C91.0623 25.6962 90.8314 25.6038 90.6835 25.4286C90.5368 25.2546 90.4816 25.007 90.5277 24.7312C90.6177 24.169 91.0747 23.7759 91.64 23.7759C91.9218 23.7759 92.1509 23.8696 92.3019 24.0463C92.4537 24.2248 92.5137 24.4739 92.4698 24.7485Z" fill="white"/>
<path d="M95.0234 21.0452L94.1727 26.4575C94.156 26.5623 94.2373 26.6569 94.343 26.6569H95.1983C95.3404 26.6569 95.4611 26.5538 95.4829 26.4135L96.3218 21.0989C96.3384 20.994 96.2572 20.8992 96.1514 20.8992H95.1938C95.1092 20.8995 95.0365 20.9613 95.0234 21.0452Z" fill="white"/>
<path opacity="0.68" d="M88.1159 7.42382C88.2803 6.37542 88.1148 5.66222 87.5477 5.016C86.9235 4.30472 85.7957 4 84.3529 4H80.1645C79.8697 4 79.6185 4.21454 79.5726 4.50594L77.8285 15.5653C77.7942 15.7835 77.9629 15.9808 78.1836 15.9808H80.7693L80.5908 17.1125C80.5608 17.3034 80.7082 17.4759 80.9015 17.4759H83.081C83.3389 17.4759 83.5585 17.2883 83.5988 17.0334L83.6202 16.9225L84.0307 14.3189L84.0572 14.1751C84.0974 13.9203 84.317 13.7324 84.575 13.7324H84.9009C87.0124 13.7324 88.6657 12.8747 89.1487 10.3939C89.3506 9.35726 89.2462 8.49198 88.7124 7.88364C88.5511 7.69999 88.3502 7.5479 88.1159 7.42382Z" fill="white"/>
<path opacity="0.7" d="M88.1159 7.42382C88.2803 6.37542 88.1148 5.66222 87.5477 5.016C86.9235 4.30472 85.7957 4 84.3529 4H80.1645C79.8697 4 79.6185 4.21454 79.5726 4.50594L77.8285 15.5653C77.7942 15.7835 77.9629 15.9808 78.1836 15.9808H80.7693L81.4188 11.862L81.3986 11.9911C81.4446 11.6999 81.6935 11.4852 81.9884 11.4852H83.2175C85.631 11.4852 87.521 10.5046 88.073 7.66883C88.0895 7.5851 88.1034 7.5037 88.1159 7.42382Z" fill="white"/>
<path d="M82.1166 7.43768C82.1442 7.26254 82.2568 7.11896 82.4082 7.04649C82.4769 7.01355 82.5539 6.99515 82.6345 6.99515H85.9176C86.3066 6.99515 86.6693 7.02068 87.0008 7.07408C87.0955 7.08931 87.1877 7.10688 87.2773 7.12679C87.3668 7.14669 87.4538 7.16879 87.538 7.1935C87.5801 7.20571 87.6214 7.21875 87.6622 7.2322C87.825 7.28628 87.9767 7.34997 88.1161 7.42395C88.2806 6.37556 88.115 5.66236 87.548 5.01614C86.9235 4.30472 85.7957 4 84.3529 4H80.1645C79.8697 4 79.6185 4.21454 79.5726 4.50594L77.8285 15.5653C77.7942 15.7835 77.9629 15.9808 78.1836 15.9808H80.7693L81.4188 11.862L82.1166 7.43768Z" fill="white"/>
</g>
<g clip-path="url(#clip2_27_519)">
<rect x="116" width="50" height="32" rx="3" fill="black"/>
<path d="M126.914 11.709C124.233 11.709 122 12.8461 122 16.2766C122 18.9944 123.502 20.7059 126.983 20.7059C131.08 20.7059 131.343 18.0068 131.343 18.0068H129.358C129.358 18.0068 128.932 19.4602 126.862 19.4602C125.176 19.4602 123.963 18.3212 123.963 16.7248H131.551V15.723C131.551 14.1436 130.548 11.709 126.914 11.709ZM126.844 12.9893C128.449 12.9893 129.544 13.9725 129.544 15.4462H124.007C124.007 13.8817 125.435 12.9893 126.844 12.9893Z" fill="#E53238"/>
<path d="M131.549 8.38721V18.9832C131.549 19.5847 131.506 20.4292 131.506 20.4292H133.4C133.4 20.4292 133.468 19.8227 133.468 19.2683C133.468 19.2683 134.404 20.732 136.947 20.732C139.626 20.732 141.446 18.8722 141.446 16.2076C141.446 13.7288 139.774 11.7351 136.952 11.7351C134.308 11.7351 133.487 13.1625 133.487 13.1625V8.38721H131.549ZM136.463 13.0457C138.282 13.0457 139.439 14.3958 139.439 16.2076C139.439 18.1504 138.103 19.4214 136.476 19.4214C134.534 19.4214 133.487 17.9054 133.487 16.2249C133.487 14.659 134.427 13.0457 136.463 13.0457Z" fill="#0064D2"/>
<path d="M146.152 11.709C142.12 11.709 141.861 13.9168 141.861 14.2696H143.868C143.868 14.2696 143.973 12.9807 146.013 12.9807C147.339 12.9807 148.366 13.5875 148.366 14.7541V15.1693H146.013C142.889 15.1693 141.238 16.0832 141.238 17.9376C141.238 19.7626 142.764 20.7556 144.826 20.7556C147.636 20.7556 148.542 19.2028 148.542 19.2028C148.542 19.8204 148.589 20.4291 148.589 20.4291H150.373C150.373 20.4291 150.304 19.6746 150.304 19.192V15.0201C150.304 12.2847 148.098 11.709 146.152 11.709ZM148.366 16.4151V16.9687C148.366 17.6908 147.921 19.4861 145.297 19.4861C143.861 19.4861 143.245 18.7692 143.245 17.9376C143.245 16.4248 145.319 16.4151 148.366 16.4151Z" fill="#F5AF02"/>
<path d="M149.223 12.0557H151.481L154.722 18.5475L157.955 12.0557H160L154.111 23.6132H151.966L153.665 20.3914L149.223 12.0557Z" fill="#86B817"/>
</g>
<g clip-path="url(#clip3_27_519)">
<rect x="174" width="50" height="32" rx="3" fill="#5485EC"/>
<path d="M197.971 16.827V21.2502H196.568V10.3269H200.29C200.734 10.3176 201.176 10.3964 201.589 10.5587C202.003 10.721 202.38 10.9636 202.7 11.2726C203.022 11.5627 203.279 11.9186 203.453 12.3162C203.626 12.7138 203.713 13.144 203.706 13.5778C203.715 14.014 203.63 14.447 203.457 14.8472C203.283 15.2473 203.025 15.6052 202.7 15.8962C202.049 16.5168 201.246 16.8268 200.29 16.8262H197.971V16.827ZM197.971 11.6717V15.4848H200.325C200.583 15.4925 200.839 15.4462 201.078 15.3489C201.317 15.2517 201.534 15.1056 201.713 14.9201C201.891 14.7466 202.033 14.539 202.13 14.3098C202.227 14.0805 202.277 13.8341 202.277 13.5853C202.277 13.3364 202.227 13.09 202.13 12.8607C202.033 12.6315 201.891 12.4239 201.713 12.2505C201.536 12.061 201.32 11.9113 201.081 11.8114C200.842 11.7115 200.584 11.6636 200.325 11.6709H197.971V11.6717Z" fill="white"/>
<path d="M206.94 13.5327C207.977 13.5327 208.796 13.8099 209.396 14.3642C209.996 14.9185 210.296 15.6785 210.295 16.6442V21.2504H208.953V20.2133H208.892C208.311 21.0674 207.538 21.4945 206.574 21.4945C205.75 21.4945 205.062 21.2504 204.507 20.7624C204.241 20.5383 204.029 20.2578 203.885 19.9412C203.741 19.6245 203.67 19.2798 203.676 18.9321C203.676 18.1587 203.968 17.5437 204.553 17.087C205.137 16.6303 205.918 16.4013 206.894 16.4002C207.727 16.4002 208.413 16.5527 208.952 16.8577V16.537C208.954 16.3 208.903 16.0655 208.802 15.8507C208.702 15.6359 208.555 15.4461 208.373 15.295C208.002 14.9602 207.518 14.7776 207.018 14.7834C206.234 14.7834 205.614 15.114 205.158 15.7753L203.922 14.9969C204.601 14.0208 205.608 13.5327 206.94 13.5327ZM205.124 18.9626C205.123 19.1412 205.165 19.3174 205.246 19.4766C205.327 19.6358 205.445 19.7733 205.59 19.8777C205.9 20.1218 206.285 20.2512 206.68 20.2438C207.272 20.2428 207.84 20.0071 208.259 19.5884C208.723 19.1508 208.956 18.6375 208.956 18.0483C208.518 17.6997 207.908 17.5254 207.126 17.5254C206.556 17.5254 206.08 17.6628 205.7 17.9376C205.315 18.2165 205.124 18.5555 205.124 18.9626Z" fill="white"/>
<path d="M218 13.7769L213.314 24.5451H211.866L213.605 20.7773L210.524 13.7769H212.049L214.276 19.1457H214.306L216.472 13.7769H218Z" fill="white"/>
<path d="M192.301 15.8736C192.301 15.446 192.265 15.0191 192.193 14.5977H186.275V17.0145H189.664C189.595 17.4005 189.448 17.7685 189.233 18.0962C189.018 18.424 188.738 18.7047 188.411 18.9215V20.4903H190.434C191.619 19.3982 192.301 17.7832 192.301 15.8736Z" fill="white"/>
<path d="M186.275 22.0059C187.968 22.0059 189.394 21.4498 190.434 20.4911L188.411 18.9223C187.848 19.304 187.123 19.5219 186.275 19.5219C184.638 19.5219 183.249 18.4185 182.752 16.9316H180.668V18.5484C181.191 19.5877 181.991 20.4614 182.981 21.072C183.972 21.6825 185.112 22.0058 186.275 22.0059Z" fill="white"/>
<path d="M182.752 16.9319C182.489 16.1527 182.489 15.309 182.752 14.5298V12.9131H180.668C180.229 13.7874 180 14.7524 180 15.7309C180 16.7094 180.229 17.6743 180.668 18.5486L182.752 16.9319Z" fill="white"/>
<path d="M186.275 11.9395C187.17 11.9248 188.035 12.263 188.682 12.8807L190.473 11.0897C189.338 10.0229 187.833 9.43729 186.275 9.45549C185.112 9.45554 183.972 9.77889 182.982 10.3894C181.991 11 181.191 11.8737 180.668 12.913L182.752 14.5297C183.249 13.0429 184.638 11.9395 186.275 11.9395Z" fill="white"/>
</g>
<g clip-path="url(#clip4_27_519)">
<rect x="232" width="50" height="32" rx="3" fill="black"/>
<path fill-rule="evenodd" clip-rule="evenodd" d="M273.399 18.1833H274.127V20.5003H274.168L275.115 19.3873L275.787 19.3856L274.748 20.6021L276 22.1235H275.161L274.138 20.7074H274.127V22.1235H273.399V18.1833ZM238.769 18.3596V20.5201C238.769 21.2562 238.987 21.6585 239.598 21.6585C240.182 21.6585 240.416 21.1707 240.416 20.5627V18.3596H241.104V20.6972C241.104 21.6477 240.481 22.1863 239.576 22.1863C238.539 22.1863 238 21.6853 238 20.6596V18.3596H238.769ZM242.713 19.7514C242.96 19.4938 243.303 19.3701 243.647 19.3701C244.285 19.3701 244.623 19.7132 244.623 20.3903V22.1212H243.899V20.4717C243.899 20.0951 243.73 19.8477 243.353 19.8477C242.998 19.8477 242.719 20.079 242.719 20.5201V22.1212H241.994V19.434H242.713V19.7514ZM245.476 22.1212H246.201V19.434H245.476V22.1212ZM245.405 18.6282C245.405 18.4243 245.579 18.2143 245.825 18.2143C246.076 18.2143 246.272 18.4188 246.272 18.6282C246.272 18.859 246.104 19.0796 245.836 19.0796C245.579 19.0796 245.405 18.859 245.405 18.6282ZM247.806 22.1212L246.645 19.4226H247.414C247.649 20.0408 247.893 20.6223 248.122 21.3691H248.133C248.379 20.6223 248.611 20.0408 248.862 19.4226H249.543L248.313 22.1212H247.806ZM251.701 20.4557C251.73 20.0461 251.582 19.7675 251.223 19.7675C250.807 19.7675 250.62 20.0951 250.628 20.4557H251.701ZM250.616 20.8425C250.599 21.3481 250.959 21.7236 251.412 21.7236C251.681 21.7236 251.964 21.6322 252.145 21.5083L252.352 21.8849C251.981 22.0996 251.593 22.1863 251.282 22.1863C250.458 22.1863 249.842 21.6107 249.842 20.7241C249.842 19.8961 250.452 19.3701 251.233 19.3701C252.084 19.3701 252.439 20.0414 252.385 20.8425H250.616ZM253.809 19.9069H253.819L253.967 19.6975C254.048 19.5787 254.212 19.3701 254.436 19.3701C254.599 19.3701 254.775 19.4562 254.928 19.6114L254.654 20.1059C254.534 20.0461 254.457 20.0146 254.311 20.0146C254.06 20.0146 253.814 20.2135 253.814 20.7935V22.1212H253.087V19.434H253.809V19.9069ZM256.864 19.939C256.701 19.8209 256.532 19.7675 256.4 19.7675C256.237 19.7675 256.073 19.8585 256.073 20.0414C256.073 20.2564 256.335 20.3804 256.64 20.5998C257.029 20.886 257.143 21.1652 257.143 21.4111C257.143 21.7886 256.722 22.1863 256.123 22.1863C255.746 22.1863 255.468 22.0567 255.212 21.8796L255.441 21.5083C255.604 21.6381 255.838 21.7662 256.034 21.7662C256.243 21.7662 256.427 21.6585 256.427 21.433C256.427 21.1803 256.143 21.0409 255.882 20.858C255.571 20.6488 255.359 20.4443 255.359 20.1117C255.359 19.6864 255.773 19.3701 256.307 19.3701C256.608 19.3701 256.902 19.4448 257.1 19.6175L256.864 19.939ZM258.932 20.6917C258.578 20.8046 258.398 21.0033 258.398 21.3093C258.398 21.5462 258.55 21.7075 258.726 21.7075C259.014 21.7075 259.391 21.3525 259.337 20.5627L258.932 20.6917ZM259.162 21.8636C258.965 22.0249 258.714 22.1863 258.464 22.1863C258.038 22.1863 257.682 21.8636 257.682 21.3691C257.682 20.858 258.06 20.5735 258.693 20.3903L259.337 20.2022C259.299 19.9553 259.075 19.7999 258.841 19.7999C258.529 19.7999 258.311 19.9128 258.12 20.0741L257.884 19.7354C258.224 19.4614 258.556 19.3701 258.932 19.3701C259.435 19.3701 260.052 19.5303 260.052 20.3696V21.4654C260.052 21.6807 260.079 21.9339 260.167 22.1212H259.397C259.341 22.0296 259.326 21.8744 259.326 21.7291L259.162 21.8636ZM260.865 22.1212H261.591V18.1714H260.865V22.1212ZM268.019 20.6917C267.664 20.8046 267.484 21.0033 267.484 21.3093C267.484 21.5462 267.636 21.7075 267.812 21.7075C268.1 21.7075 268.477 21.3525 268.424 20.5627L268.019 20.6917ZM268.247 21.8636C268.051 22.0249 267.8 22.1863 267.549 22.1863C267.124 22.1863 266.768 21.8636 266.768 21.3691C266.768 20.858 267.145 20.5735 267.779 20.3903L268.424 20.2022C268.384 19.9553 268.161 19.7999 267.925 19.7999C267.615 19.7999 267.396 19.9128 267.205 20.0741L266.97 19.7354C267.309 19.4614 267.642 19.3701 268.019 19.3701C268.52 19.3701 269.136 19.5303 269.136 20.3696V21.4654C269.136 21.6807 269.163 21.9339 269.25 22.1212H268.482C268.428 22.0296 268.41 21.8744 268.41 21.7291L268.247 21.8636ZM270.67 19.7514C270.916 19.4938 271.26 19.3701 271.604 19.3701C272.242 19.3701 272.58 19.7132 272.58 20.3903V22.1212H271.855V20.4717C271.855 20.0951 271.686 19.8477 271.309 19.8477C270.954 19.8477 270.676 20.079 270.676 20.5201V22.1212H269.95V19.434H270.67V19.7514ZM264.239 21.6687H264.632C265.058 21.6687 265.381 21.4487 265.381 21.0301C265.381 20.589 265.047 20.4011 264.627 20.4011H264.239V21.6687ZM264.239 19.939H264.48C264.923 19.939 265.223 19.6598 265.223 19.3097C265.223 18.9772 264.971 18.8325 264.638 18.8325H264.239V19.939H264.239ZM263.47 22.1314V18.3698H264.851C265.495 18.3698 265.948 18.6598 265.948 19.1703C265.948 19.7718 265.452 20.0198 265.184 20.0893V20.1C265.659 20.1219 266.188 20.4437 266.188 21.0187C266.188 21.6687 265.636 22.1314 264.737 22.1314H263.47Z" fill="white"/>
<path fill-rule="evenodd" clip-rule="evenodd" d="M276 16.2236L276 16.5154L238 16.5154L238 16.2236L276 16.2236Z" fill="white"/>
<path fill-rule="evenodd" clip-rule="evenodd" d="M245.43 14.4836V12.04C245.43 11.3468 245.059 11.0178 244.436 11.0178C243.917 11.0178 243.469 11.3258 243.273 11.6339C243.147 11.2488 242.832 11.0178 242.335 11.0178C241.817 11.0178 241.369 11.3398 241.229 11.5429V11.1018H240.34V14.4836H241.229V12.208C241.362 12.019 241.621 11.8089 241.929 11.8089C242.293 11.8089 242.433 12.033 242.433 12.3481V14.4836H243.329V12.201C243.455 12.019 243.714 11.8089 244.029 11.8089C244.394 11.8089 244.534 12.033 244.534 12.3481V14.4836H245.43ZM247.873 14.5676C246.76 14.5676 246.088 13.7554 246.088 12.7892C246.088 11.83 246.76 11.0178 247.873 11.0178C248.994 11.0178 249.666 11.83 249.666 12.7892C249.666 13.7554 248.994 14.5676 247.873 14.5676ZM247.873 13.7764C248.427 13.7764 248.742 13.3213 248.742 12.7892C248.742 12.2641 248.427 11.8089 247.873 11.8089C247.32 11.8089 247.012 12.2641 247.012 12.7892C247.012 13.3213 247.32 13.7764 247.873 13.7764ZM253.496 14.4836V12.096C253.496 11.4379 253.139 11.0178 252.396 11.0178C251.843 11.0178 251.43 11.2838 251.213 11.5429V11.1018H250.324V14.4836H251.213V12.208C251.36 12.005 251.633 11.8089 251.983 11.8089C252.361 11.8089 252.606 11.97 252.606 12.4391V14.4836H253.496ZM255.946 14.5676C254.833 14.5676 254.161 13.7554 254.161 12.7892C254.161 11.83 254.833 11.0178 255.946 11.0178C257.067 11.0178 257.739 11.83 257.739 12.7892C257.739 13.7554 257.067 14.5676 255.946 14.5676ZM255.946 13.7764C256.499 13.7764 256.814 13.3213 256.814 12.7892C256.814 12.2641 256.499 11.8089 255.946 11.8089C255.393 11.8089 255.085 12.2641 255.085 12.7892C255.085 13.3213 255.393 13.7764 255.946 13.7764ZM259.286 13.3983C259.433 13.6154 259.762 13.7764 260.049 13.7764C260.567 13.7764 260.91 13.3843 260.91 12.7962C260.91 12.208 260.567 11.8089 260.049 11.8089C259.762 11.8089 259.433 11.977 259.286 12.201V13.3983ZM259.286 14.4836H258.397V9.81348H259.286V11.5359C259.552 11.1928 259.93 11.0178 260.329 11.0178C261.191 11.0178 261.828 11.6899 261.828 12.7962C261.828 13.9234 261.184 14.5676 260.329 14.5676C259.923 14.5676 259.552 14.3856 259.286 14.0495V14.4836ZM265.42 14.4836H264.53V14.1335C264.299 14.4066 263.9 14.5676 263.459 14.5676C262.92 14.5676 262.283 14.2035 262.283 13.4473C262.283 12.6561 262.92 12.3551 263.459 12.3551C263.907 12.3551 264.306 12.5021 264.53 12.7682V12.3131C264.53 11.97 264.236 11.7459 263.788 11.7459C263.424 11.7459 263.088 11.879 262.801 12.145L262.465 11.5499C262.878 11.1858 263.41 11.0178 263.942 11.0178C264.712 11.0178 265.42 11.3258 265.42 12.2991V14.4836ZM263.816 13.9655C264.103 13.9655 264.383 13.8674 264.53 13.6714V13.2513C264.383 13.0552 264.103 12.9572 263.816 12.9572C263.466 12.9572 263.179 13.1393 263.179 13.4683C263.179 13.7834 263.466 13.9655 263.816 13.9655ZM269.473 14.4836V12.096C269.473 11.4379 269.116 11.0178 268.374 11.0178C267.821 11.0178 267.408 11.2838 267.191 11.5429V11.1018H266.302V14.4836H267.191V12.208C267.338 12.005 267.611 11.8089 267.961 11.8089C268.339 11.8089 268.584 11.97 268.584 12.4391V14.4836H269.473ZM273.66 14.4836L272.281 12.6351L273.618 11.1018H272.526L271.245 12.6071V9.81348H270.356V14.4836H271.245V13.6154L271.651 13.1813L272.547 14.4836H273.66Z" fill="white"/>
</g>
<g clip-path="url(#clip5_27_519)">
<rect x="290" width="50" height="32" rx="3" fill="#F8F8F8"/>
<mask id="mask0_27_519" style="mask-type:alpha" maskUnits="userSpaceOnUse" x="290" y="0" width="50" height="32">
<rect x="290" width="50" height="32" rx="3" fill="#F9F9F9"/>
</mask>
<g mask="url(#mask0_27_519)">
<path d="M304.453 32H338.359C339.258 32 340 31.2578 340 30.3594V18.875C336.758 20.9453 324.492 28.0547 304.453 32Z" fill="#F58220"/>
</g>
<path d="M297.722 12.9727H296V18.9858H297.713C298.623 18.9858 299.281 18.771 299.858 18.2916C300.544 17.724 300.95 16.8684 300.95 15.9834C300.95 14.209 299.624 12.9727 297.722 12.9727ZM299.092 17.4899C298.723 17.8226 298.245 17.9678 297.487 17.9678H297.172V13.9916H297.487C298.245 13.9916 298.705 14.1271 299.092 14.4778C299.498 14.8389 299.742 15.3988 299.742 15.9746C299.742 16.552 299.498 17.1288 299.092 17.4899Z" fill="#231F20"/>
<path d="M302.662 12.9727H301.49V18.9858H302.662V12.9727Z" fill="#231F20"/>
<path d="M305.531 15.2799C304.827 15.0196 304.62 14.8478 304.62 14.5229C304.62 14.1441 304.988 13.8564 305.494 13.8564C305.845 13.8564 306.134 14.0008 306.44 14.3433L307.053 13.5398C306.549 13.0986 305.946 12.873 305.286 12.873C304.222 12.873 303.411 13.6119 303.411 14.596C303.411 15.4245 303.789 15.8486 304.89 16.245C305.35 16.4069 305.583 16.5147 305.701 16.5873C305.936 16.7403 306.053 16.9571 306.053 17.2095C306.053 17.6967 305.666 18.0576 305.142 18.0576C304.583 18.0576 304.132 17.7779 303.862 17.2557L303.104 17.9854C303.645 18.7786 304.294 19.1302 305.186 19.1302C306.405 19.1302 307.26 18.3198 307.26 17.1558C307.26 16.2004 306.865 15.7678 305.531 15.2799Z" fill="#231F20"/>
<path d="M307.63 15.9833C307.63 17.7508 309.018 19.1213 310.804 19.1213C311.309 19.1213 311.741 19.022 312.275 18.7709V17.3902C311.806 17.8596 311.39 18.0488 310.859 18.0488C309.677 18.0488 308.839 17.1923 308.839 15.9746C308.839 14.8202 309.704 13.9093 310.804 13.9093C311.364 13.9093 311.787 14.109 312.275 14.5859V13.2058C311.76 12.9446 311.337 12.8364 310.832 12.8364C309.055 12.8367 307.63 14.2351 307.63 15.9833Z" fill="#231F20"/>
<path d="M321.574 17.0117L319.971 12.9727H318.689L321.241 19.1401H321.873L324.47 12.9727H323.199L321.574 17.0117Z" fill="#231F20"/>
<path d="M325.001 18.9858H328.327V17.968H326.173V16.3449H328.248V15.3262H326.173V13.9916H328.327V12.9727H325.001V18.9858Z" fill="#231F20"/>
<path d="M332.971 14.7479C332.971 13.6221 332.196 12.9727 330.843 12.9727H329.104V18.9858H330.275V16.5703H330.428L332.052 18.9859H333.494L331.601 16.4525C332.485 16.2729 332.971 15.6686 332.971 14.7479ZM330.618 15.741H330.275V13.9198H330.636C331.367 13.9198 331.764 14.2259 331.764 14.8111C331.764 15.4157 331.367 15.741 330.618 15.741Z" fill="#231F20"/>
<path d="M315.857 19.199C317.623 19.199 319.055 17.7668 319.055 16.0001C319.055 14.2334 317.623 12.8013 315.857 12.8013C314.09 12.8013 312.658 14.2334 312.658 16.0001C312.658 17.7668 314.09 19.199 315.857 19.199Z" fill="url(#paint0_linear_27_519)"/>
<path opacity="0.65" d="M315.857 19.199C317.623 19.199 319.055 17.7668 319.055 16.0001C319.055 14.2334 317.623 12.8013 315.857 12.8013C314.09 12.8013 312.658 14.2334 312.658 16.0001C312.658 17.7668 314.09 19.199 315.857 19.199Z" fill="url(#paint1_linear_27_519)"/>
<path d="M333.72 13.1987C333.72 13.0933 333.647 13.0356 333.52 13.0356H333.35V13.5642H333.476V13.3591L333.624 13.5642H333.778L333.604 13.3462C333.679 13.3263 333.72 13.2721 333.72 13.1987ZM333.498 13.2709H333.476V13.1327H333.499C333.561 13.1327 333.594 13.1552 333.594 13.2007C333.594 13.2473 333.561 13.2709 333.498 13.2709Z" fill="#231F20"/>
<path d="M333.545 12.8384C333.289 12.8384 333.085 13.0431 333.085 13.2991C333.085 13.5549 333.291 13.76 333.545 13.76C333.795 13.76 334 13.5526 334 13.2991C334 13.0466 333.795 12.8384 333.545 12.8384ZM333.543 13.6776C333.341 13.6776 333.176 13.5095 333.176 13.2998C333.176 13.0893 333.339 12.9214 333.543 12.9214C333.744 12.9214 333.908 13.0932 333.908 13.2998C333.908 13.5077 333.744 13.6776 333.543 13.6776Z" fill="#231F20"/>
</g>
<g clip-path="url(#clip6_27_519)">
<rect x="348" width="50" height="32" rx="3" fill="#0D0D0D"/>
<path d="M352.562 13.9025H353.577L353.82 15.7044H353.827L354.094 13.9025H355.267L355.533 15.7044H355.541L355.783 13.9025H356.798L356.18 16.7664H354.95L354.685 14.9111H354.677L354.411 16.7664H353.181L352.562 13.9025Z" fill="#FDDF12"/>
<path d="M357.461 13.9025H359.639V14.6493H358.548V14.9538H359.556V15.6999H358.548V16.0211H359.675V16.7664H357.461V13.9025Z" fill="#FDDF12"/>
<path d="M361.963 14.716C361.959 14.5375 361.86 14.4778 361.713 14.4778C361.531 14.4778 361.451 14.5571 361.451 14.645C361.451 14.7472 361.519 14.7911 361.638 14.827C361.856 14.8911 362.256 14.9696 362.546 15.093C362.907 15.2433 363.066 15.5018 363.066 15.8463C363.066 16.5485 362.495 16.8423 361.685 16.8423C360.995 16.8423 360.36 16.6281 360.36 15.8822H361.447C361.447 15.9622 361.464 16.0411 361.507 16.101C361.55 16.1557 361.622 16.1914 361.729 16.1914C361.895 16.1914 362.003 16.0843 362.003 15.9577C362.003 15.851 361.92 15.7956 361.812 15.7634L361.007 15.5258C360.567 15.3947 360.413 15.1283 360.413 14.7599C360.413 14.1646 360.893 13.8274 361.729 13.8274C362.443 13.8274 362.979 14.0502 362.979 14.716H361.963Z" fill="#FDDF12"/>
<path d="M364.386 14.6731H363.681V13.9025H366.227V14.6731H365.521V16.7661H364.386V14.6731Z" fill="#FDDF12"/>
<path d="M366.964 13.9025H369.142V14.6493H368.052V14.9538H369.059V15.6999H368.052V16.0211H369.178V16.7664H366.964V13.9025Z" fill="#FDDF12"/>
<path d="M369.987 13.9025H371.681C372.296 13.9025 372.657 14.0896 372.657 14.6295C372.657 14.9586 372.518 15.2076 372.089 15.3114V15.3191C372.367 15.3432 372.518 15.4655 372.573 15.6845C372.637 15.93 372.629 16.3345 372.76 16.7664H371.65C371.582 16.5524 371.547 16.1915 371.506 15.9462C371.483 15.8027 371.412 15.7482 371.229 15.7482H371.098V16.7664H369.987V13.9025ZM371.193 15.0967C371.412 15.0967 371.57 15.0214 371.57 14.8078C371.57 14.5976 371.423 14.5536 371.2 14.5536H371.098V15.0967H371.193Z" fill="#FDDF12"/>
<path d="M373.518 13.9025H374.878L375.484 15.6366H375.493V13.9025H376.413V16.7664H375.054L374.446 15.0214H374.438V16.7664H373.518V13.9025Z" fill="#FDDF12"/>
<path d="M363.042 19.236C363.042 19.9268 362.546 20.2722 361.681 20.2722C360.817 20.2722 360.321 19.9268 360.321 19.236V17.3329H361.455V19.1887C361.455 19.4147 361.562 19.5031 361.681 19.5031C361.8 19.5031 361.908 19.4147 361.908 19.1887V17.3329H363.042V19.236Z" fill="#FDDF12"/>
<path d="M363.951 17.3329H365.311L365.918 19.0666H365.926V17.3329H366.845V20.1973H365.485L364.879 18.4512H364.87V20.1973H363.951V17.3329Z" fill="#FDDF12"/>
<path d="M367.775 17.3329H368.908V20.1973H367.775V17.3329Z" fill="#FDDF12"/>
<path d="M371.212 17.2576C372.2 17.2576 372.692 17.872 372.692 18.7647C372.692 19.657 372.2 20.2722 371.212 20.2722C370.225 20.2722 369.734 19.657 369.734 18.7647C369.734 17.872 370.225 17.2576 371.212 17.2576ZM371.212 19.5264C371.388 19.5264 371.518 19.4269 371.518 18.7647C371.518 18.1179 371.396 18.003 371.212 18.003C371.031 18.003 370.907 18.1179 370.907 18.7647C370.907 19.4269 371.039 19.5264 371.212 19.5264Z" fill="#FDDF12"/>
<path d="M373.518 17.3329H374.878L375.484 19.0666H375.493V17.3329H376.413V20.1973H375.054L374.446 18.4512H374.438V20.1973H373.518V17.3329Z" fill="#FDDF12"/>
<path d="M387.092 13.8619H386.608L386.067 17.8817H386.05L385.457 13.8619H382.838L382.244 17.8817H382.227L381.687 13.8619H379.423L380.803 20.25H383.547L384.139 16.1116H384.157L384.749 20.25H387.493L387.631 19.6111C387.28 19.2384 387.092 18.7389 387.092 18.1083V13.8619Z" fill="#FDDF12"/>
<path d="M387.092 13.8618V18.1083C387.092 18.7389 387.28 19.2384 387.631 19.6111L388.872 13.8618H387.092Z" fill="white"/>
<path d="M390.63 13.8619V18.0028C390.63 18.5068 390.391 18.7031 390.126 18.7031C389.861 18.7031 389.622 18.5068 389.622 18.0028V13.8619H389.082L387.807 19.7701C388.324 20.2005 389.107 20.4197 390.126 20.4197C392.054 20.4197 393.161 19.6487 393.161 18.1083V13.8619H390.63Z" fill="#FDDF12"/>
<path d="M377.763 13.8619H377.386L378.742 20.25H379.119L377.763 13.8619Z" fill="#FDDF12"/>
<path d="M379.773 20.25H380.15L378.793 13.8619H378.417L379.773 20.25Z" fill="#FDDF12"/>
<path d="M393.925 14.1674C393.921 14.1246 393.898 14.1034 393.854 14.1034C393.821 14.1034 393.787 14.121 393.787 14.158C393.787 14.2037 393.828 14.2091 393.864 14.2178C393.929 14.2343 394.024 14.2525 394.024 14.3373C394.024 14.4423 393.932 14.4785 393.841 14.4785C393.745 14.4785 393.676 14.4411 393.679 14.3344H393.771C393.768 14.3812 393.795 14.413 393.842 14.413C393.879 14.413 393.927 14.4019 393.927 14.3568C393.927 14.3068 393.866 14.3032 393.83 14.294C393.771 14.2794 393.69 14.2525 393.69 14.1774C393.69 14.0808 393.779 14.0378 393.866 14.0378C393.948 14.0378 394.012 14.0823 394.012 14.1674H393.925Z" fill="#FDDF12"/>
<path d="M394.358 14.4695H394.282L394.171 14.1064L394.169 14.1075V14.4695H394.084V14.0464H394.233L394.322 14.3541H394.323L394.419 14.0464H394.563V14.4695H394.478V14.1075L394.477 14.1064L394.358 14.4695Z" fill="#FDDF12"/>
</g>
<g clip-path="url(#clip7_27_519)">
<rect x="406" width="50" height="32" rx="3" fill="black"/>
<path d="M414.769 16.2757C414.951 16.3135 415.115 16.332 415.355 16.332C416.294 16.332 416.928 15.7365 416.928 14.9802C416.928 14.2997 416.439 14.0543 415.806 14.0543C415.527 14.0543 415.316 14.0733 415.182 14.1106L414.769 16.2757ZM414.241 13.3263C414.635 13.2313 415.22 13.175 415.796 13.175C416.401 13.175 417.034 13.2975 417.456 13.6288C417.83 13.9123 418.051 14.3275 418.051 14.8955C418.051 15.6513 417.686 16.2664 417.225 16.6253C416.708 17.0318 415.968 17.2304 415.201 17.2304C414.97 17.2304 414.769 17.2016 414.596 17.183L414.126 19.5938H413.033L414.241 13.3263Z" fill="white"/>
<path d="M421.015 15.7834C420.9 15.7546 420.756 15.7363 420.555 15.7363C419.528 15.7363 418.722 16.8806 418.722 17.9299C418.722 18.4113 418.904 18.8087 419.394 18.8087C419.921 18.8087 420.555 18.1663 420.776 16.9938L421.015 15.7834ZM420.564 19.5936C420.564 19.3189 420.602 18.9507 420.641 18.5625H420.622C420.162 19.4045 419.538 19.6973 418.943 19.6973C418.108 19.6973 417.561 19.0544 417.561 18.1283C417.561 16.559 418.674 14.8856 420.852 14.8856C421.36 14.8856 421.907 14.98 422.272 15.0934L421.783 17.4947C421.648 18.1751 421.572 19.0451 421.591 19.5936H420.564Z" fill="white"/>
<path d="M428.623 17.7691C428.623 18.4017 428.959 18.8473 429.534 18.8473C430.369 18.8473 430.926 17.7123 430.926 16.7954C430.926 16.3223 430.705 15.7363 430.034 15.7363C429.141 15.7363 428.623 16.9089 428.623 17.7691ZM432.077 16.7864C432.077 18.3552 430.973 19.6973 429.381 19.6973C428.2 19.6973 427.472 18.8939 427.472 17.7969C427.472 16.2377 428.575 14.8858 430.168 14.8858C431.425 14.8858 432.077 15.7744 432.077 16.7864Z" fill="white"/>
<path d="M432.287 19.5938L432.892 16.4172C433.007 15.8687 433.074 15.3866 433.132 14.9899H434.13L434.024 15.8124H434.043C434.475 15.1975 435.07 14.8857 435.722 14.8857C436.394 14.8857 436.912 15.2832 436.912 16.1527C436.912 16.3603 436.875 16.6816 436.826 16.9088L436.317 19.5938H435.194L435.693 16.9939C435.722 16.8239 435.751 16.6253 435.751 16.4455C435.751 16.0578 435.607 15.7836 435.166 15.7836C434.657 15.7836 434.005 16.3884 433.803 17.4668L433.4 19.5938H432.287Z" fill="white"/>
<path d="M439.886 15.708C439.185 15.708 438.725 16.3223 438.591 16.8806C439.742 16.8898 440.481 16.7386 440.481 16.1811C440.481 15.8881 440.241 15.708 439.886 15.708ZM440.951 19.3286C440.49 19.5648 439.867 19.6973 439.3 19.6973C438.006 19.6973 437.382 18.9131 437.382 17.7879C437.382 16.3982 438.418 14.8858 440.03 14.8858C440.951 14.8858 441.536 15.4055 441.536 16.1811C441.536 17.3624 440.28 17.7403 438.476 17.7028C438.456 17.8633 438.495 18.1751 438.6 18.3549C438.783 18.6672 439.118 18.8277 439.56 18.8277C440.088 18.8277 440.51 18.6953 440.846 18.5252L440.951 19.3286Z" fill="white"/>
<path d="M444.231 15.708C443.531 15.708 443.071 16.3223 442.936 16.8806C444.087 16.8898 444.827 16.7386 444.827 16.1811C444.827 15.8881 444.587 15.708 444.231 15.708ZM445.297 19.3286C444.836 19.5648 444.213 19.6973 443.647 19.6973C442.352 19.6973 441.728 18.9131 441.728 17.7879C441.728 16.3982 442.763 14.8858 444.376 14.8858C445.297 14.8858 445.883 15.4055 445.883 16.1811C445.883 17.3624 444.625 17.7403 442.822 17.7028C442.802 17.8633 442.84 18.1751 442.946 18.3549C443.129 18.6672 443.464 18.8277 443.906 18.8277C444.434 18.8277 444.855 18.6953 445.192 18.5252L445.297 19.3286Z" fill="white"/>
<path d="M445.949 19.5938L446.496 16.7575C446.621 16.1054 446.688 15.3964 446.735 14.9899H447.705C447.676 15.3017 447.647 15.623 447.599 15.9544H447.627C447.946 15.3395 448.453 14.8857 449.087 14.8857C449.174 14.8857 449.26 14.8955 449.337 14.8955L449.115 15.9731C449.058 15.9634 448.981 15.9634 448.904 15.9634C448.107 15.9634 447.599 16.7575 447.417 17.7405L447.062 19.5938H445.949Z" fill="white"/>
<path d="M450.186 15.411H450.267C450.351 15.411 450.407 15.365 450.407 15.2953C450.407 15.217 450.348 15.1826 450.265 15.1826C450.226 15.1826 450.199 15.1854 450.186 15.1884V15.411ZM450.105 15.1333C450.146 15.126 450.204 15.1208 450.258 15.1208C450.343 15.1208 450.4 15.1378 450.437 15.1709C450.468 15.1977 450.486 15.2395 450.486 15.2876C450.486 15.3667 450.435 15.4203 450.37 15.4416V15.4446C450.417 15.4606 450.445 15.5045 450.461 15.5676C450.481 15.6517 450.495 15.7111 450.508 15.7349H450.426C450.416 15.7163 450.402 15.665 450.386 15.5891C450.367 15.505 450.333 15.4739 450.261 15.4709H450.186V15.7349H450.105V15.1333Z" fill="white"/>
<path d="M450.289 14.8854C449.984 14.8854 449.736 15.1296 449.736 15.4301C449.736 15.7307 449.984 15.9751 450.289 15.9751C450.594 15.9751 450.842 15.7307 450.842 15.4301C450.842 15.1296 450.594 14.8854 450.289 14.8854ZM450.289 14.9696C450.547 14.9696 450.756 15.1752 450.756 15.4301C450.756 15.6848 450.547 15.8912 450.289 15.8912C450.031 15.8912 449.821 15.6848 449.821 15.4301C449.821 15.1752 450.031 14.9696 450.289 14.9696Z" fill="white"/>
<path d="M422.653 10.5568C422.699 11.5957 423.61 15.5599 423.61 15.5599C423.945 16.3628 424.233 15.5599 424.233 15.5599C425.336 12.3032 423.083 10.4159 423.083 10.4159C422.508 10.0848 422.653 10.5568 422.653 10.5568ZM435.731 9.99086C435.731 9.99086 436.834 10.7459 435.731 10.8874C435.731 10.8874 431.611 11.3593 428.545 14.192C428.545 14.192 423.945 18.1554 422.221 22.498C422.221 22.498 421.646 22.498 421.838 21.6488C422.03 20.7993 423.179 17.0703 428.305 12.4927C428.305 12.4927 433.241 8.05571 435.731 9.99086Z" fill="#FF4600"/>
</g>
<g clip-path="url(#clip8_27_519)">
<rect y="40" width="50" height="32" rx="3" fill="black"/>
<path d="M12.9433 50.1933C12.498 50.7219 11.7854 51.1388 11.0728 51.0792C10.9837 50.3645 11.3326 49.6052 11.7408 49.1362C12.1862 48.5927 12.9656 48.2056 13.5965 48.1758C13.6707 48.9203 13.3813 49.6498 12.9433 50.1933ZM13.5891 51.2207C12.5573 51.1611 11.674 51.8088 11.1841 51.8088C10.6868 51.8088 9.93711 51.2505 9.12061 51.2653C8.05916 51.2802 7.07194 51.8833 6.53008 52.8436C5.41667 54.7644 6.2406 57.6083 7.31689 59.1717C7.8439 59.9459 8.47484 60.7946 9.30618 60.7648C10.093 60.7351 10.4047 60.2512 11.3549 60.2512C12.3124 60.2512 12.587 60.7648 13.4184 60.75C14.2794 60.7351 14.8213 59.9757 15.3483 59.2014C15.9495 58.323 16.1945 57.4668 16.2093 57.4222C16.1945 57.4073 14.5466 56.7745 14.5318 54.8686C14.5169 53.2754 15.8308 52.5161 15.8901 52.4714C15.1479 51.3696 13.9899 51.2505 13.5891 51.2207ZM19.5495 49.0617V60.6681H21.3458V56.7H23.8325C26.1038 56.7 27.6997 55.1366 27.6997 52.8734C27.6997 50.6102 26.1335 49.0617 23.8918 49.0617H19.5495ZM21.3458 50.5804H23.4168C24.9756 50.5804 25.8663 51.4142 25.8663 52.8809C25.8663 54.3475 24.9756 55.1887 23.4094 55.1887H21.3458V50.5804ZM30.9805 60.7574C32.1088 60.7574 33.1554 60.1842 33.6305 59.2759H33.6676V60.6681H35.3303V54.8909C35.3303 53.2159 33.9942 52.1364 31.9381 52.1364C30.0304 52.1364 28.6201 53.2308 28.5682 54.7346H30.1863C30.3199 54.0199 30.9805 53.5509 31.8861 53.5509C32.9847 53.5509 33.6008 54.0646 33.6008 55.0101V55.6503L31.3591 55.7843C29.2733 55.9109 28.1451 56.767 28.1451 58.256C28.1451 59.7598 29.3104 60.7574 30.9805 60.7574ZM31.463 59.3801C30.5055 59.3801 29.8968 58.9185 29.8968 58.2113C29.8968 57.4817 30.4832 57.0574 31.604 56.9904L33.6008 56.8638V57.5189C33.6008 58.6059 32.6803 59.3801 31.463 59.3801ZM37.5497 63.8246C39.3014 63.8246 40.1253 63.1546 40.8453 61.1222L44 52.2481H42.174L40.0585 59.1047H40.0214L37.9059 52.2481H36.028L39.0713 60.6978L38.908 61.2115C38.6334 62.0826 38.188 62.4176 37.3938 62.4176C37.2527 62.4176 36.9781 62.4027 36.8668 62.3878V63.78C36.9707 63.8097 37.416 63.8246 37.5497 63.8246Z" fill="white"/>
</g>
<g clip-path="url(#clip9_27_519)">
<rect x="58" y="40" width="50" height="32" rx="3" fill="#306FC8"/>
<mask id="mask1_27_519" style="mask-type:alpha" maskUnits="userSpaceOnUse" x="58" y="40" width="50" height="32">
<rect x="58" y="40" width="50" height="32" rx="3" fill="url(#paint2_linear_27_519)"/>
</mask>
<g mask="url(#mask1_27_519)">
<path d="M79.6395 63.4348V58.7764L77.4858 61.0706L79.6395 63.4348Z" fill="white"/>
<path d="M70.6135 59.3608V60.4095L73.693 60.4031V61.6042H70.6135V62.7545H74.0658L75.6731 61.0513L74.1301 59.3608H70.6135Z" fill="white"/>
<path d="M83.6964 50.5336C83.8764 50.4319 83.9857 50.2286 83.9857 49.9807C83.9857 49.7329 83.87 49.5549 83.6964 49.4596C83.5292 49.3643 83.2785 49.3579 83.0278 49.3579H81.292V50.6544H83.0085C83.2785 50.6544 83.5035 50.6417 83.6964 50.5336Z" fill="white"/>
<path d="M60.5845 51.4486H62.5067L61.5424 49.1353L60.5845 51.4486Z" fill="white"/>
<path d="M82.8798 59.3608H81.0476V60.8225H82.867C83.4006 60.8225 83.7349 60.5683 83.7349 60.0663C83.7285 59.5642 83.3813 59.3608 82.8798 59.3608Z" fill="white"/>
<path d="M60.9444 53.8065H62.1531L62.6995 55.1093H67.4247V54.1179L67.8491 55.1093H70.292L70.7163 54.1052V55.1093H82.4555V52.9867H82.6869C82.8541 52.9867 82.8991 53.0057 82.8991 53.2663V55.1093H88.9679V54.6072C89.4501 54.8678 90.2087 55.1093 91.2245 55.1093H93.7768L94.3296 53.8065H95.5383L96.0847 55.1093H100.99V53.8764L101.742 55.1093H105.683V47H101.787V47.9533L101.228 47H97.2226V47.9533L96.734 47H91.3209C90.408 47 89.6044 47.1207 88.9679 47.4639V47H85.2392V47.4639C84.802 47.1144 84.2556 47 83.6384 47H69.9899L69.0641 49.0909L68.1384 47H63.8439V47.9533L63.3553 47H59.6908L58 50.8449V55.1093H60.398L60.9444 53.8065ZM89.2315 48.824C89.6816 48.36 90.4016 48.1439 91.3723 48.1439H92.716V49.3896H91.3981C90.8773 49.3896 90.588 49.4658 90.3116 49.7391C90.0673 49.9806 89.9001 50.4446 89.9001 51.0547C89.9001 51.6775 90.0223 52.116 90.2987 52.421C90.5045 52.6498 90.8966 52.7197 91.2759 52.7197H91.906L93.886 48.1439H95.9819L98.367 53.6476V48.1439H100.514L102.983 52.1922V48.1439H104.429V53.9654H102.424L99.7685 49.6057V53.9654H96.9076L96.3676 52.6625H93.4425L92.9024 53.9654H91.2695C90.5816 53.9654 89.7137 53.8065 89.2251 53.3171C88.7301 52.8214 88.4794 52.1541 88.4794 51.0991C88.4794 50.2348 88.6336 49.4468 89.2315 48.824ZM86.3514 48.1439H87.7915V53.9654H86.3514V48.1439ZM79.8904 48.1439H83.1305C83.8441 48.1439 84.3713 48.1694 84.8213 48.4236C85.2713 48.6841 85.5478 49.0655 85.5478 49.7137C85.5478 50.6352 84.9177 51.1119 84.5449 51.258C84.8535 51.3724 85.117 51.5821 85.2392 51.7537C85.4385 52.0334 85.4706 52.3003 85.4706 52.8087V53.9654H84.0563V53.2282C84.0563 52.885 84.0884 52.3765 83.8248 52.1033C83.6255 51.8935 83.317 51.8491 82.8026 51.8491H81.2919V53.9654H79.8839V48.1439H79.8904ZM74.2201 48.1439H78.9132V49.3578H75.6216V50.4064H78.8296V51.6012H75.6216V52.7515L78.9132 52.7452V53.959H74.2201V48.1439ZM59.5429 53.9654H58.0129L60.5266 48.1439H62.6224L65.0075 53.6476V48.1439H67.309L69.1413 52.0906L70.8321 48.1439H73.1722V53.9654H71.7321V49.4086L69.6941 53.9654H68.4598L66.4154 49.4023V53.9654H63.5481L63.0081 52.6625H60.083L59.5429 53.9654Z" fill="white"/>
<path d="M94.9018 49.1353L93.9438 51.4486H95.8597L94.9018 49.1353Z" fill="white"/>
<path d="M104.886 59.4943C104.738 59.5896 104.674 59.7294 104.674 59.9137C104.674 60.1298 104.802 60.2823 104.982 60.3459C105.124 60.3967 105.285 60.4094 105.522 60.4094L106.275 60.4285C107.053 60.4476 107.567 60.5747 107.882 60.8988C107.927 60.9433 107.965 60.9877 107.998 61.0322V59.3926H105.445C105.195 59.3926 105.021 59.4053 104.886 59.4943Z" fill="white"/>
<path d="M106.101 63.9619H103.388V62.7163H106.088C106.352 62.7163 106.538 62.6782 106.654 62.5765C106.75 62.4875 106.821 62.3604 106.821 62.1952C106.821 62.0236 106.75 61.8901 106.647 61.8075C106.545 61.7185 106.397 61.6804 106.159 61.6804C104.847 61.6423 103.195 61.7249 103.195 59.8755C103.195 59.043 103.729 58.1469 105.207 58.1469H108.004V57.0029H105.4C104.622 57.0029 104.037 57.1809 103.639 57.4669V57.0029H99.8007C99.19 57.0029 98.4571 57.1491 98.1163 57.4669V57.0029H91.2438V57.4669C90.6974 57.0855 89.7781 57.0029 89.3409 57.0029H84.8085V57.4669C84.3778 57.0538 83.4263 57.0029 82.8413 57.0029H77.7625L76.5988 58.2486L75.5188 57.0029H67.9456V65.1122H75.3838L76.5731 63.8475L77.7046 65.1059L82.282 65.1122V63.1993H82.7384C83.3427 63.1993 84.0628 63.1866 84.6864 62.9197V65.1122H88.4794V62.9896H88.6659C88.8973 62.9896 88.9166 63.0086 88.9166 63.2247V65.1122H100.392C101.112 65.1122 101.89 64.9279 102.314 64.5975V65.1122H105.953C106.705 65.1122 107.451 65.0042 108.017 64.7373V63.2311C107.65 63.7268 107.007 63.9619 106.101 63.9619ZM82.7899 62.0172H81.0412V63.9619H78.3025L76.5796 62.049L74.7795 63.9683H69.2056V58.1469H74.863L76.586 60.0598L78.3796 58.1469H82.8799C83.9856 58.1469 85.2393 58.4646 85.2393 60.0725C85.2328 61.6804 84.0178 62.0172 82.7899 62.0172ZM91.2503 61.7567C91.4496 62.0363 91.4817 62.3032 91.4881 62.8116V63.9619H90.0738V63.2247C90.0738 62.8815 90.1059 62.3731 89.8423 62.0998C89.6366 61.8901 89.3345 61.8456 88.8202 61.8456H87.3094V63.9619H85.9014V58.1405H89.1416C89.8552 58.1405 90.3759 58.1659 90.8324 58.4265C91.2824 58.6871 91.5589 59.0684 91.5589 59.7166C91.5589 60.6381 90.9288 61.1148 90.5624 61.261C90.871 61.3753 91.1346 61.5851 91.2503 61.7567ZM97.0298 59.3607H93.7447V60.4093H96.9591V61.6105H93.7447V62.7608H97.0363V63.9683H92.3432V58.1469H97.0363V59.3607H97.0298ZM100.604 63.9619H97.8656V62.7163H100.591C100.855 62.7163 101.041 62.6782 101.157 62.5765C101.254 62.4875 101.324 62.3604 101.324 62.1952C101.324 62.0236 101.254 61.8901 101.151 61.8075C101.048 61.7185 100.9 61.6804 100.662 61.6804C99.3507 61.6423 97.6984 61.7249 97.6984 59.8755C97.6984 59.0366 98.232 58.1469 99.7107 58.1469H102.527V59.3925H99.9486C99.6914 59.3925 99.5243 59.3989 99.3828 59.4878C99.235 59.5832 99.1771 59.723 99.1771 59.9073C99.1771 60.1234 99.3057 60.2759 99.4857 60.3394C99.6335 60.3903 99.7878 60.403 100.026 60.403L100.778 60.4221C101.556 60.4411 102.07 60.5682 102.385 60.8923C102.662 61.1847 102.809 61.5215 102.809 62.1253C102.816 63.3709 102.032 63.9619 100.604 63.9619Z" fill="white"/>
<path d="M89.7137 59.4562C89.5466 59.3672 89.2894 59.3608 89.0451 59.3608H87.3093V60.6573H89.0258C89.2959 60.6573 89.5273 60.651 89.7137 60.5429C89.8937 60.4412 90.003 60.2379 90.003 59.99C89.9966 59.7358 89.8873 59.5579 89.7137 59.4562Z" fill="white"/>
</g>
</g>
<g clip-path="url(#clip10_27_519)">
<rect x="116" y="40" width="50" height="32" rx="3" fill="#333333"/>
<path fill-rule="evenodd" clip-rule="evenodd" d="M145.598 60.5441C143.375 62.1611 140.192 63.0202 137.463 63.0202C133.622 63.0202 130.136 61.6053 127.508 59.2303C127.306 59.0282 127.508 58.7755 127.71 58.9271C130.54 60.5947 134.077 61.5548 137.665 61.5548C140.091 61.5548 142.819 61.0494 145.295 59.9883C145.649 59.8872 145.952 60.2915 145.598 60.5441Z" fill="#FF9201"/>
<path fill-rule="evenodd" clip-rule="evenodd" d="M146.508 59.483C146.205 59.1293 144.638 59.3314 143.931 59.3819C143.729 59.4324 143.678 59.2303 143.88 59.0787C145.144 58.1692 147.215 58.4723 147.468 58.725C147.721 59.0282 147.418 61.1 146.205 62.1106C146.003 62.2622 145.851 62.1612 145.952 61.959C146.154 61.3527 146.761 59.8872 146.508 59.483Z" fill="#FF9201"/>
<path fill-rule="evenodd" clip-rule="evenodd" d="M143.981 52.8634V52.0044C143.981 51.8528 144.082 51.8022 144.183 51.8022H148.024C148.125 51.8022 148.226 51.9033 148.226 52.0044V52.7624C148.226 52.8634 148.125 53.0655 147.923 53.3182L145.902 56.1985C146.66 56.1985 147.418 56.2996 148.125 56.6533C148.277 56.7544 148.327 56.8554 148.327 57.007V57.9166C148.327 58.0177 148.176 58.1693 148.024 58.1187C146.811 57.5124 145.245 57.4113 143.931 58.1187C143.779 58.1693 143.678 58.0682 143.678 57.9166V57.007C143.678 56.8554 143.678 56.6533 143.83 56.4007L146.154 53.0655H144.133C144.082 53.0655 143.981 52.9645 143.981 52.8634Z" fill="white"/>
<path fill-rule="evenodd" clip-rule="evenodd" d="M129.883 58.2198H128.721C128.62 58.2198 128.519 58.1187 128.519 58.0177V52.0044C128.519 51.9033 128.62 51.8022 128.721 51.8022H129.832C129.934 51.8022 130.035 51.9033 130.035 52.0044V52.8129C130.338 52.0549 130.843 51.7012 131.601 51.7012C132.359 51.7012 132.814 52.0549 133.117 52.8129C133.42 52.0549 134.027 51.7012 134.734 51.7012C135.239 51.7012 135.745 51.9033 136.098 52.3581C136.452 52.8634 136.402 53.6214 136.402 54.2278V58.0177C136.402 58.1187 136.301 58.2198 136.199 58.2198H135.037C134.936 58.2198 134.835 58.1187 134.835 58.0177V54.8341C134.835 54.5815 134.835 53.9246 134.785 53.7224C134.684 53.3182 134.431 53.2171 134.077 53.2171C133.774 53.2171 133.471 53.4193 133.37 53.7224C133.269 54.0256 133.269 54.531 133.269 54.8847V58.0682C133.269 58.1693 133.168 58.2703 133.066 58.2703H131.904C131.803 58.2703 131.702 58.1693 131.702 58.0682V54.8847C131.702 54.2278 131.803 53.2171 130.995 53.2171C130.136 53.2171 130.186 54.1772 130.186 54.8847V58.0682C130.085 58.1187 129.984 58.2198 129.883 58.2198Z" fill="white"/>
<path fill-rule="evenodd" clip-rule="evenodd" d="M151.612 51.6504C153.38 51.6504 154.29 53.1664 154.29 55.036C154.29 56.8552 153.229 58.3206 151.612 58.3206C149.894 58.3206 148.984 56.8046 148.984 54.935C148.934 53.1158 149.894 51.6504 151.612 51.6504ZM151.612 52.9137C150.753 52.9137 150.702 54.0759 150.702 54.8339C150.702 55.5919 150.702 57.1584 151.612 57.1584C152.521 57.1584 152.572 55.8951 152.572 55.1371C152.572 54.6318 152.572 54.0254 152.42 53.5201C152.269 53.0653 151.965 52.9137 151.612 52.9137Z" fill="white"/>
<path fill-rule="evenodd" clip-rule="evenodd" d="M156.564 58.2195H155.402C155.301 58.2195 155.199 58.1185 155.199 58.0174V52.0041C155.199 51.9031 155.301 51.802 155.402 51.802H156.513C156.614 51.802 156.715 51.8525 156.715 51.9536V52.8632C157.069 52.0547 157.524 51.6504 158.332 51.6504C158.838 51.6504 159.394 51.8525 159.697 52.3578C160 52.8632 160 53.6717 160 54.2275V58.0174C160 58.1185 159.899 58.2195 159.798 58.2195H158.636C158.535 58.2195 158.433 58.1185 158.433 58.0174V54.7328C158.433 54.0759 158.535 53.1158 157.676 53.1158C157.372 53.1158 157.12 53.3179 157.019 53.6211C156.867 53.9749 156.816 54.3791 156.816 54.7834V58.0174C156.766 58.1185 156.665 58.2195 156.564 58.2195Z" fill="white"/>
<path fill-rule="evenodd" clip-rule="evenodd" d="M140.899 55.3395C140.899 55.7942 140.899 56.1985 140.697 56.6028C140.495 56.9565 140.191 57.1586 139.888 57.1586C139.433 57.1586 139.181 56.8049 139.181 56.2996C139.181 55.2889 140.09 55.1373 140.949 55.1373V55.3395H140.899ZM142.061 58.2198C141.96 58.2703 141.859 58.2703 141.808 58.2703C141.404 57.9671 141.354 57.8155 141.152 57.4618C140.495 58.1187 140.04 58.3208 139.231 58.3208C138.221 58.3208 137.463 57.7145 137.463 56.5017C137.463 55.5416 137.968 54.8847 138.726 54.5815C139.383 54.2783 140.242 54.2278 140.949 54.1772V54.0256C140.949 53.7224 140.949 53.4192 140.798 53.1666C140.646 52.9645 140.394 52.8634 140.141 52.8634C139.686 52.8634 139.282 53.1161 139.181 53.5708C139.181 53.6719 139.08 53.773 138.979 53.773L137.816 53.6719C137.715 53.6719 137.614 53.5708 137.665 53.4192C137.918 52.0549 139.181 51.6001 140.293 51.6001C140.848 51.6001 141.606 51.7517 142.061 52.2065C142.617 52.7623 142.566 53.4698 142.566 54.2278V56.0469C142.566 56.6028 142.819 56.8554 143.021 57.1586C143.072 57.2597 143.122 57.4113 143.021 57.4618C142.718 57.6639 142.314 58.0176 142.061 58.2198Z" fill="white"/>
<path fill-rule="evenodd" clip-rule="evenodd" d="M125.487 55.3395C125.487 55.7942 125.487 56.1985 125.285 56.6028C125.082 56.9565 124.779 57.1586 124.476 57.1586C124.021 57.1586 123.769 56.8049 123.769 56.2996C123.769 55.2889 124.678 55.1373 125.537 55.1373V55.3395H125.487ZM126.649 58.2198C126.548 58.2703 126.447 58.2703 126.346 58.2703C125.941 57.9671 125.891 57.8155 125.689 57.4618C125.032 58.1187 124.577 58.3208 123.769 58.3208C122.758 58.3208 122 57.7145 122 56.5017C122 55.5416 122.505 54.8847 123.263 54.5815C123.92 54.2783 124.779 54.2278 125.487 54.1772V54.0256C125.487 53.7224 125.487 53.4192 125.335 53.1666C125.183 52.9645 124.931 52.8634 124.678 52.8634C124.223 52.8634 123.819 53.1161 123.718 53.5708C123.718 53.6719 123.617 53.773 123.516 53.773L122.354 53.6719C122.253 53.6719 122.152 53.5708 122.202 53.4192C122.455 52.0549 123.718 51.6001 124.83 51.6001C125.386 51.6001 126.144 51.7517 126.598 52.2065C127.154 52.7623 127.104 53.4698 127.104 54.2278V56.0469C127.104 56.6028 127.356 56.8554 127.559 57.1586C127.609 57.2597 127.66 57.4113 127.559 57.4618C127.306 57.6639 126.902 58.0176 126.649 58.2198Z" fill="white"/>
</g>
<g clip-path="url(#clip11_27_519)">
<rect x="174" y="40" width="50" height="32" rx="3" fill="#499FE3"/>
<path d="M189.827 58.0913V52.0233C189.827 50.9874 188.977 50.1577 187.942 50.1577H179.885C178.83 50.1577 178 50.9874 178 52.0233V59.9765C178 61.0124 178.849 61.8421 179.885 61.8421H187.922C188.977 61.8421 189.807 61.0124 189.807 59.9765V59.8931C189.807 59.8931 186.719 58.6314 185.168 57.8851C184.132 59.1468 182.787 59.9127 181.378 59.9127C180.509 59.9127 179.782 59.6034 179.35 59.1468C179.144 58.921 178.997 58.651 178.913 58.3613C178.913 58.3417 178.894 58.2975 178.894 58.2779C178.894 58.2779 178.874 58.2386 178.874 58.1748C178.771 57.6151 178.938 57.0358 179.35 56.5399C179.6 56.2503 180.013 55.9606 180.656 55.8134C181.672 55.563 183.268 55.9606 184.755 56.4565C185.025 55.9606 185.251 55.4206 185.418 54.8413H180.818V54.3847H183.199V53.555H180.317V53.0985H183.194V51.9202C183.194 51.9202 183.194 51.714 183.4 51.714H184.559V53.1034H187.426V53.5599H184.569V54.3896H186.886C186.66 55.3028 186.326 56.1276 185.894 56.8542C186.596 57.1045 187.24 57.35 187.716 57.4973C189.434 58.052 189.827 58.0913 189.827 58.0913ZM180.877 56.4958C180.587 56.5154 180.028 56.6627 179.718 56.9082C178.805 57.6937 179.345 59.1223 181.191 59.1223C182.266 59.1223 183.327 58.4399 184.171 57.3598C182.968 56.81 181.977 56.3927 180.877 56.4958Z" fill="white"/>
<path d="M196.744 58.877H198.34L195.36 52.3721H194.923C194.859 52.3721 194.775 52.3917 194.716 52.4359C194.657 52.4801 194.613 52.539 194.569 52.6028L191.545 58.877H192.62L193.16 57.8215H196.248L196.744 58.877ZM194.736 54.488L196.042 57.2864H193.366L194.736 54.488ZM200.411 58.877H198.963V52.6666C198.963 52.6028 198.983 52.5194 199.047 52.4604C199.11 52.3966 199.169 52.377 199.253 52.377H200.431V58.8819H200.411V58.877ZM201.673 54.3653C201.673 54.3015 201.693 54.218 201.756 54.1787C201.82 54.1149 201.879 54.0953 201.963 54.0953H203.141V58.8819H201.668V54.3653H201.673ZM204.363 54.3653C204.363 54.3015 204.383 54.218 204.447 54.1591C204.511 54.0953 204.57 54.0756 204.653 54.0756H205.831V54.4488C205.998 54.3015 206.185 54.1984 206.411 54.1149C206.617 54.0315 206.887 53.9922 207.176 53.9922C207.486 53.9922 207.756 54.056 208.026 54.1787C208.276 54.3015 208.502 54.4684 208.669 54.6746C208.856 54.8808 208.978 55.1115 209.081 55.4012C209.184 55.6712 209.229 55.9608 209.229 56.2701C209.229 56.6629 209.165 57.0164 209.062 57.3453C208.939 57.6791 208.772 57.9688 208.566 58.2143C208.36 58.4646 208.09 58.6512 207.78 58.7936C207.471 58.9409 207.137 58.9998 206.744 58.9998C206.558 58.9998 206.391 58.9998 206.249 58.9801C206.101 58.9605 205.979 58.9409 205.836 58.877V60.8015H204.363V54.3653ZM205.836 57.5319C205.836 57.6546 205.856 57.7577 205.9 57.8657C205.939 57.9688 206.003 58.0523 206.087 58.1357C206.17 58.2192 206.254 58.283 206.376 58.3223C206.479 58.3615 206.602 58.3861 206.749 58.3861C206.872 58.3861 207 58.3468 207.103 58.2634C207.206 58.1799 207.309 58.0768 207.392 57.9099C207.476 57.7626 207.54 57.576 207.599 57.3699C207.638 57.1637 207.682 56.9329 207.682 56.7071C207.682 56.3978 207.663 56.1278 207.618 55.897C207.579 55.6712 207.515 55.4601 207.432 55.3177C207.348 55.1508 207.265 55.0477 207.162 54.9642C207.059 54.8808 206.936 54.8415 206.808 54.8415C206.725 54.8415 206.622 54.8611 206.538 54.8808C206.455 54.9201 206.371 54.9642 206.288 55.0035C206.204 55.0673 206.141 55.1262 206.062 55.1901C205.998 55.2735 205.915 55.3374 205.856 55.4159V57.5269H205.836V57.5319ZM213.004 54.1345C212.302 53.9284 211.408 53.9087 210.206 54.218C210.245 54.3407 210.289 54.5518 210.328 54.6746C212.253 54.3407 212.606 54.5911 212.606 55.4208V55.6712C212.253 55.6516 211.84 55.5877 211.507 55.5877C210.201 55.5681 209.724 56.604 209.724 57.2668C209.724 58.4057 210.824 59.4809 212.601 58.6954V58.8819H214.094V55.3815C214.118 54.6942 213.539 54.2818 213.004 54.1345ZM210.932 57.2864C210.932 56.7267 211.389 56.3143 211.948 56.2701C212.302 56.2505 212.508 56.3094 212.631 56.3929V58.0277C212.444 58.1946 212.218 58.2977 211.948 58.2977C211.364 58.2977 210.932 57.8412 210.932 57.2864ZM214.516 53.9922H216.067L217.599 56.9329L218.861 54.1787C218.881 54.1149 218.925 54.0756 218.984 54.0315C219.047 53.9922 219.106 53.9922 219.17 53.9922H220L217.575 59.314C216.995 60.7623 215.567 60.5561 215.316 60.5561V59.746C215.503 59.746 216.166 59.746 216.455 59.4367C216.519 59.3729 216.578 59.2305 216.622 59.1471C216.666 59.0636 216.706 58.9801 216.745 58.8967L216.912 58.5039L214.516 53.9922Z" fill="white"/>
<path d="M203.205 52.6665C203.205 53.0592 202.851 53.3685 202.419 53.3685C201.982 53.3685 201.634 53.0592 201.634 52.6665C201.634 52.2737 201.987 51.9644 202.419 51.9644C202.851 51.9595 203.205 52.2737 203.205 52.6665Z" fill="white"/>
</g>
<g clip-path="url(#clip12_27_519)">
<rect x="232" y="40" width="50" height="32" rx="3" fill="#2E408B"/>
<path d="M275 52.6819H273.147L272.053 57.2469L271.884 57.8809C271.758 57.9232 271.674 57.9232 271.547 57.9654C271.379 58.0077 271.211 58.0077 271 58.0077C270.747 58.0077 270.579 57.9654 270.411 57.8809C270.284 57.7964 270.158 57.7118 270.116 57.585C270.074 57.4582 270.032 57.2892 270.032 57.1201C270.032 56.951 270.074 56.7397 270.116 56.5706L270.705 54.2036L271.084 52.6397H269.189L268.305 56.317C268.179 56.7819 268.137 57.2046 268.137 57.5428C268.137 57.9654 268.179 58.3036 268.305 58.5995C268.432 58.8953 268.684 59.149 269.021 59.318C269.358 59.4871 269.821 59.5716 270.368 59.5716C270.789 59.5716 271.168 59.5294 271.463 59.4448H271.505C271.421 59.8252 271.253 60.1211 270.958 60.3747C270.663 60.6283 270.284 60.7552 269.779 60.7552C269.568 60.7552 269.316 60.7551 269.147 60.7129L268.768 62.2345C269.021 62.2768 269.316 62.2768 269.611 62.2768C270.2 62.2768 270.705 62.1923 271.084 62.0655C271.505 61.9387 271.884 61.7273 272.221 61.4737C272.516 61.2201 272.811 60.882 273.021 60.4593C273.232 60.0366 273.4 59.5716 273.526 59.0644L274.789 53.6118L275 52.6819ZM267.211 56.6129C267.084 57.0778 267.042 57.585 267.084 58.05C267.126 58.5572 267.337 59.2335 267.505 59.6139H265.695C265.484 59.2335 265.484 59.0644 265.442 58.9376C265.189 59.149 264.937 59.2758 264.642 59.4026C264.347 59.5294 264.053 59.6139 263.674 59.6139C263.253 59.6139 262.874 59.5294 262.579 59.4026C262.284 59.2758 262.032 59.0644 261.821 58.8108C261.611 58.5572 261.484 58.2613 261.4 57.9232C261.316 57.585 261.274 57.2469 261.274 56.8242C261.274 56.2325 261.4 55.683 261.568 55.218C261.779 54.7108 262.074 54.2458 262.453 53.9077C262.832 53.5273 263.674 52.6819 265.147 52.6819H268.053L267.211 56.6129ZM265.863 54.2881C264.979 54.2881 264.811 54.2881 264.474 54.4572C264.221 54.584 264.011 54.7953 263.8 55.0489C263.632 55.2603 263.463 55.5562 263.337 55.852C263.211 56.1479 263.168 56.4861 263.168 56.8242C263.168 57.2469 263.253 57.5428 263.379 57.7964C263.505 58.05 263.758 58.1345 264.137 58.1345C264.347 58.1345 264.516 58.0923 264.684 58.0077C264.853 57.9232 265.021 57.7964 265.189 57.6273C265.189 57.416 265.232 57.2046 265.274 56.951C265.316 56.6974 265.358 56.4861 265.4 56.317L265.863 54.2881ZM260.853 55.4294C260.853 56.0634 260.726 56.6129 260.558 57.1201C260.347 57.6273 260.053 58.0923 259.716 58.4304C259.337 58.8108 258.916 59.1067 258.453 59.318C257.947 59.5294 257.4 59.6562 256.853 59.6562C256.558 59.6562 256.263 59.6139 255.968 59.5716L255.379 61.8541H253.526L255.674 52.7242H258.158C258.621 52.7242 259.042 52.8087 259.337 52.9355C259.674 53.0623 259.968 53.2737 260.179 53.5273C260.389 53.7809 260.558 54.0768 260.684 54.4149C260.811 54.7108 260.853 55.0489 260.853 55.4294ZM256.263 58.0077C256.389 58.05 256.6 58.05 256.811 58.05C257.147 58.05 257.442 58.0077 257.737 57.8809C257.989 57.7541 258.242 57.585 258.453 57.3737C258.663 57.1624 258.789 56.8665 258.916 56.5706C259.042 56.2747 259.084 55.8943 259.084 55.5139C259.084 55.1335 259 54.8376 258.832 54.584C258.663 54.3304 258.368 54.2036 257.989 54.2036H257.232L256.263 58.0077ZM252.389 58.0077C252.137 58.0077 251.968 57.9654 251.8 57.8809C251.674 57.7964 251.547 57.7118 251.505 57.585C251.463 57.4582 251.421 57.2892 251.421 57.1201C251.421 56.951 251.463 56.7397 251.505 56.5706L252.095 54.2036H254.2L254.579 52.6397H252.432L252.937 50.653L250.958 50.9912L249.695 56.3593C249.568 56.8242 249.526 57.2469 249.526 57.585C249.526 58.0077 249.568 58.3459 249.695 58.6417C249.821 58.9376 250.074 59.1912 250.411 59.3603C250.747 59.5294 251.211 59.6139 251.758 59.6139C252.179 59.6139 252.558 59.5716 252.853 59.4871C252.895 59.4871 252.937 59.4871 252.979 59.4448L253.358 57.8386C253.232 57.8809 253.105 57.9232 252.979 57.9232C252.768 58.0077 252.6 58.0077 252.389 58.0077ZM247.632 52.6819L245.989 59.6139H247.842L249.484 52.6819H247.632ZM249.653 51.8788L249.947 50.6953H248.095L247.8 51.8788H249.653ZM243.505 52.6819C243.926 52.6819 244.263 52.7665 244.558 52.8933C244.853 53.0201 245.105 53.2314 245.316 53.485C245.526 53.7386 245.653 54.0345 245.737 54.3726C245.821 54.7108 245.863 55.0489 245.863 55.4294C245.863 56.0211 245.737 56.5706 245.526 57.0778C245.316 57.585 245.021 58.05 244.642 58.4304C244.263 58.8531 243.842 59.1067 243.337 59.3603C242.832 59.5716 242.284 59.6984 241.737 59.6984H241.274C241.063 59.6984 240.853 59.6984 240.6 59.6562C240.347 59.6139 240.095 59.5716 239.8 59.4871C239.505 59.4026 239.253 59.318 239 59.1912L241.189 50.019L243.126 49.7231L242.326 52.9778C242.495 52.8933 242.663 52.851 242.832 52.8087C243.126 52.6819 243.295 52.6819 243.505 52.6819ZM241.821 58.0923C242.116 58.0923 242.411 58.0077 242.663 57.8809C242.916 57.7541 243.168 57.5428 243.337 57.2892C243.547 57.0355 243.674 56.7819 243.8 56.4861C243.926 56.1902 243.968 55.852 243.968 55.5139C243.968 55.0912 243.884 54.7953 243.758 54.5417C243.632 54.3304 243.337 54.2036 242.958 54.2036C242.832 54.2036 242.705 54.2036 242.537 54.2458C242.326 54.2881 242.2 54.3726 242.032 54.4995L241.189 57.9654C241.442 58.0077 241.526 58.0077 241.568 58.0077C241.653 58.0923 241.737 58.0923 241.821 58.0923Z" fill="white"/>
</g>
<g clip-path="url(#clip13_27_519)">
<rect x="290" y="40" width="50" height="32" rx="3" fill="#F7931A"/>
<path d="M304.331 62.5309C304.631 62.5309 304.891 62.5847 305.108 62.6903C305.327 62.797 305.508 62.9406 305.653 63.1213C305.796 63.3029 305.902 63.5151 305.971 63.7584C306.039 64.0023 306.074 64.2646 306.074 64.5453C306.074 64.9765 305.995 65.3839 305.835 65.7679C305.676 66.1525 305.459 66.4861 305.184 66.7707C304.909 67.0549 304.584 67.2789 304.209 67.4444C303.836 67.6101 303.429 67.6929 302.992 67.6929C302.936 67.6929 302.837 67.6913 302.697 67.6884C302.556 67.6855 302.395 67.671 302.215 67.6466C302.033 67.6213 301.841 67.5838 301.638 67.5336C301.436 67.4843 301.243 67.4153 301.062 67.3276L302.683 60.5175L304.134 60.2925L303.554 62.7092C303.678 62.6532 303.803 62.6098 303.928 62.5782C304.053 62.5471 304.188 62.5309 304.331 62.5309ZM303.113 66.5413C303.332 66.5413 303.538 66.4875 303.732 66.3819C303.926 66.2762 304.093 66.1334 304.233 65.9556C304.374 65.7771 304.485 65.5759 304.566 65.3512C304.647 65.1264 304.688 64.892 304.688 64.648C304.688 64.3483 304.638 64.1145 304.538 63.9455C304.438 63.7773 304.253 63.6926 303.985 63.6926C303.897 63.6926 303.784 63.7094 303.643 63.7393C303.503 63.7711 303.376 63.8372 303.263 63.9365L302.646 66.503C302.683 66.5096 302.716 66.5158 302.744 66.5217C302.771 66.5281 302.802 66.5326 302.832 66.5357C302.864 66.5393 302.901 66.5412 302.945 66.5412C302.989 66.5412 303.045 66.5413 303.113 66.5413Z" fill="white"/>
<path d="M307.579 67.563H306.192L307.363 62.6358H308.759L307.579 67.563ZM308.254 62.0355C308.06 62.0355 307.885 61.9779 307.729 61.8625C307.572 61.7477 307.494 61.5711 307.494 61.333C307.494 61.2021 307.521 61.0793 307.574 60.9634C307.627 60.8477 307.697 60.7481 307.785 60.6634C307.872 60.5794 307.974 60.5124 308.089 60.4618C308.205 60.4121 308.328 60.3872 308.46 60.3872C308.653 60.3872 308.828 60.4448 308.984 60.5602C309.14 60.6763 309.218 60.8529 309.218 61.0897C309.218 61.2211 309.191 61.3444 309.138 61.46C309.085 61.5757 309.015 61.6753 308.928 61.76C308.841 61.8441 308.738 61.9109 308.623 61.961C308.507 62.0115 308.385 62.0355 308.254 62.0355Z" fill="white"/>
<path d="M309.974 61.4081L311.427 61.1831L311.07 62.6354H312.625L312.345 63.778H310.799L310.387 65.5015C310.349 65.6452 310.327 65.7793 310.321 65.904C310.315 66.0293 310.33 66.1369 310.368 66.2274C310.405 66.3182 310.472 66.3882 310.569 66.4377C310.666 66.488 310.804 66.5134 310.986 66.5134C311.136 66.5134 311.281 66.4992 311.422 66.4709C311.562 66.4432 311.704 66.4045 311.848 66.354L311.951 67.4223C311.764 67.491 311.561 67.5501 311.342 67.5999C311.123 67.6503 310.864 67.6746 310.565 67.6746C310.134 67.6746 309.8 67.6106 309.562 67.4833C309.324 67.355 309.156 67.1798 309.056 66.9579C308.957 66.7369 308.913 66.482 308.925 66.1949C308.938 65.9072 308.981 65.6047 309.056 65.2861L309.974 61.4081Z" fill="white"/>
<path d="M312.564 65.5949C312.564 65.1705 312.633 64.7703 312.77 64.3956C312.908 64.0206 313.105 63.6927 313.361 63.4113C313.616 63.1312 313.928 62.9094 314.294 62.7465C314.658 62.5846 315.066 62.5029 315.516 62.5029C315.797 62.5029 316.048 62.5295 316.269 62.5829C316.492 62.6366 316.692 62.7062 316.874 62.7934L316.396 63.8807C316.271 63.83 316.141 63.7854 316.007 63.7449C315.873 63.7036 315.709 63.6837 315.516 63.6837C315.053 63.6837 314.687 63.8432 314.415 64.1612C314.143 64.4794 314.007 64.9077 314.007 65.445C314.007 65.7634 314.076 66.0209 314.213 66.2179C314.351 66.4149 314.604 66.5128 314.972 66.5128C315.154 66.5128 315.329 66.4939 315.497 66.4569C315.666 66.4194 315.815 66.3722 315.947 66.3164L316.05 67.431C315.875 67.499 315.681 67.5605 315.469 67.6142C315.257 67.6662 315.004 67.6931 314.71 67.6931C314.323 67.6931 313.995 67.6365 313.727 67.5248C313.458 67.4115 313.236 67.261 313.062 67.0704C312.886 66.8793 312.76 66.6562 312.682 66.4001C312.604 66.1442 312.564 65.8754 312.564 65.5949Z" fill="white"/>
<path d="M318.724 67.6931C318.393 67.6931 318.105 67.6427 317.861 67.5429C317.618 67.443 317.417 67.303 317.258 67.1214C317.098 66.9407 316.979 66.7266 316.897 66.4799C316.815 66.2333 316.776 65.9602 316.776 65.6609C316.776 65.2856 316.836 64.9104 316.958 64.5362C317.079 64.1612 317.259 63.8242 317.497 63.5248C317.733 63.2248 318.025 62.9796 318.368 62.7884C318.71 62.5985 319.105 62.5029 319.547 62.5029C319.872 62.5029 320.158 62.5535 320.405 62.6533C320.651 62.7529 320.854 62.8941 321.014 63.0748C321.173 63.2564 321.293 63.4696 321.374 63.7166C321.456 63.9628 321.496 64.2366 321.496 64.536C321.496 64.9102 321.437 65.2855 321.319 65.6608C321.2 66.0343 321.025 66.3721 320.794 66.6722C320.563 66.9717 320.274 67.2168 319.928 67.4072C319.581 67.5976 319.18 67.6931 318.724 67.6931ZM319.417 63.6838C319.211 63.6838 319.029 63.7435 318.874 63.8613C318.718 63.9806 318.586 64.1305 318.481 64.3113C318.374 64.4929 318.295 64.6909 318.241 64.9062C318.188 65.1219 318.162 65.3258 318.162 65.5196C318.162 65.8322 318.212 66.0757 318.312 66.251C318.412 66.4253 318.593 66.513 318.855 66.513C319.061 66.513 319.242 66.4537 319.399 66.3346C319.554 66.2163 319.685 66.0662 319.792 65.8851C319.898 65.7044 319.978 65.5058 320.031 65.2902C320.084 65.0752 320.11 64.8701 320.11 64.6767C320.11 64.3649 320.06 64.1208 319.96 63.9458C319.86 63.7715 319.679 63.6838 319.417 63.6838Z" fill="white"/>
<path d="M323.003 67.563H321.615L322.786 62.6358H324.183L323.003 67.563ZM323.677 62.0355C323.483 62.0355 323.308 61.9779 323.152 61.8625C322.996 61.7477 322.918 61.5711 322.918 61.333C322.918 61.2021 322.945 61.0793 322.998 60.9634C323.05 60.8477 323.121 60.7481 323.209 60.6634C323.296 60.5794 323.398 60.5124 323.513 60.4618C323.628 60.4121 323.752 60.3872 323.882 60.3872C324.076 60.3872 324.251 60.4448 324.407 60.5602C324.563 60.6763 324.642 60.8529 324.642 61.0897C324.642 61.2211 324.614 61.3444 324.562 61.46C324.509 61.5757 324.439 61.6753 324.352 61.76C324.264 61.8441 324.163 61.9109 324.047 61.961C323.931 62.0115 323.808 62.0355 323.677 62.0355Z" fill="white"/>
<path d="M325.186 62.8596C325.291 62.8288 325.409 62.7918 325.537 62.7516C325.665 62.7113 325.808 62.6738 325.968 62.6401C326.127 62.6053 326.305 62.577 326.502 62.5552C326.699 62.5328 326.922 62.522 327.171 62.522C327.903 62.522 328.407 62.7349 328.685 63.1595C328.963 63.5842 329.011 64.1653 328.831 64.9019L328.193 67.5623H326.797L327.415 64.9579C327.453 64.7952 327.483 64.638 327.505 64.4844C327.527 64.3322 327.525 64.198 327.5 64.0819C327.475 63.9671 327.417 63.8732 327.327 63.8005C327.235 63.7289 327.097 63.6929 326.909 63.6929C326.729 63.6929 326.545 63.7123 326.357 63.7498L325.448 67.5621H324.052L325.186 62.8596Z" fill="white"/>
<path d="M321.302 52.6724C320.434 56.1526 316.909 58.2706 313.428 57.4028C309.948 56.5351 307.83 53.01 308.698 49.53C309.565 46.0494 313.091 43.9312 316.571 44.7989C320.051 45.6666 322.17 49.192 321.302 52.6724Z" fill="white"/>
<path d="M317.864 50.1754C317.994 49.311 317.336 48.8463 316.436 48.5363L316.727 47.3653L316.015 47.1877L315.73 48.3278C315.543 48.2811 315.351 48.2371 315.159 48.1934L315.446 47.0458L314.733 46.8682L314.441 48.0387C314.286 48.0034 314.134 47.9685 313.986 47.9317L313.987 47.9281L313.003 47.6826L312.814 48.4439C312.814 48.4439 313.343 48.5651 313.332 48.5726C313.62 48.6447 313.672 48.8357 313.664 48.9872L313.331 50.3212C313.351 50.3262 313.377 50.3335 313.405 50.3449C313.381 50.339 313.356 50.3325 313.33 50.3262L312.864 52.1949C312.828 52.2826 312.739 52.4142 312.537 52.3643C312.544 52.3746 312.019 52.2349 312.019 52.2349L311.665 53.0508L312.593 53.2821C312.765 53.3253 312.934 53.3706 313.101 53.4132L312.806 54.5976L313.518 54.7752L313.81 53.6034C314.005 53.6562 314.193 53.7049 314.378 53.7508L314.087 54.9171L314.8 55.0947L315.095 53.9126C316.31 54.1426 317.225 54.0498 317.609 52.9505C317.919 52.0654 317.594 51.5549 316.954 51.2219C317.42 51.1145 317.771 50.8082 317.864 50.1754ZM316.236 52.4591C316.015 53.3442 314.525 52.8657 314.042 52.7457L314.433 51.1766C314.916 51.2972 316.466 51.536 316.236 52.4591ZM316.456 50.1626C316.255 50.9677 315.015 50.5587 314.612 50.4584L314.967 49.0353C315.37 49.1356 316.666 49.3228 316.456 50.1626Z" fill="#F7931A"/>
</g>
<defs>
<linearGradient id="paint0_linear_27_519" x1="317.494" y1="18.5638" x2="315.279" y2="15.0959" gradientUnits="userSpaceOnUse">
<stop stop-color="#F89F21"/>
<stop offset="0.2502" stop-color="#F79A23"/>
<stop offset="0.5331" stop-color="#F78E22"/>
<stop offset="0.6196" stop-color="#F68721"/>
<stop offset="0.7232" stop-color="#F48220"/>
<stop offset="1" stop-color="#F27623"/>
</linearGradient>
<linearGradient id="paint1_linear_27_519" x1="317.144" y1="18.5166" x2="313.907" y2="12.1896" gradientUnits="userSpaceOnUse">
<stop stop-color="#F68721" stop-opacity="0"/>
<stop offset="0.3587" stop-color="#E27027" stop-opacity="0.2704"/>
<stop offset="0.703" stop-color="#D4612C" stop-opacity="0.5299"/>
<stop offset="0.9816" stop-color="#D15D2D" stop-opacity="0.74"/>
</linearGradient>
<linearGradient id="paint2_linear_27_519" x1="83" y1="40" x2="83" y2="72" gradientUnits="userSpaceOnUse">
<stop stop-color="#1B8ABA"/>
<stop offset="1" stop-color="#005D9C"/>
</linearGradient>
<clipPath id="clip0_27_519">
<rect width="50" height="32" fill="white"/>
</clipPath>
<clipPath id="clip1_27_519">
<rect width="50" height="32" fill="white" transform="translate(58)"/>
</clipPath>
<clipPath id="clip2_27_519">
<rect width="50" height="32" fill="white" transform="translate(116)"/>
</clipPath>
<clipPath id="clip3_27_519">
<rect width="50" height="32" fill="white" transform="translate(174)"/>
</clipPath>
<clipPath id="clip4_27_519">
<rect width="50" height="32" fill="white" transform="translate(232)"/>
</clipPath>
<clipPath id="clip5_27_519">
<rect width="50" height="32" fill="white" transform="translate(290)"/>
</clipPath>
<clipPath id="clip6_27_519">
<rect width="50" height="32" fill="white" transform="translate(348)"/>
</clipPath>
<clipPath id="clip7_27_519">
<rect width="50" height="32" fill="white" transform="translate(406)"/>
</clipPath>
<clipPath id="clip8_27_519">
<rect width="50" height="32" fill="white" transform="translate(0 40)"/>
</clipPath>
<clipPath id="clip9_27_519">
<rect width="50" height="32" fill="white" transform="translate(58 40)"/>
</clipPath>
<clipPath id="clip10_27_519">
<rect width="50" height="32" fill="white" transform="translate(116 40)"/>
</clipPath>
<clipPath id="clip11_27_519">
<rect width="50" height="32" fill="white" transform="translate(174 40)"/>
</clipPath>
<clipPath id="clip12_27_519">
<rect width="50" height="32" fill="white" transform="translate(232 40)"/>
</clipPath>
<clipPath id="clip13_27_519">
<rect width="50" height="32" fill="white" transform="translate(290 40)"/>
</clipPath>
</defs>
</svg>
