<svg width="32" height="32" viewBox="0 0 32 32" fill="none" xmlns="http://www.w3.org/2000/svg">
<path fill-rule="evenodd" clip-rule="evenodd" d="M16 12.5011C18.1638 12.5011 19.9178 14.228 19.9178 16.3583C19.9178 18.4881 18.1637 20.215 16 20.215C13.8363 20.215 12.0822 18.4881 12.0822 16.3583C12.0822 14.228 13.8363 12.5011 16 12.5011ZM16 10.9587C12.9708 10.9587 10.5151 13.3761 10.5151 16.3583C10.5151 19.34 12.9708 21.7578 16 21.7578C19.0292 21.7578 21.4849 19.34 21.4849 16.3583C21.4849 13.3761 19.0293 10.9587 16 10.9587ZM21.6543 9.66077C21.3502 9.66553 21.0542 9.76006 20.8037 9.93248C20.5531 10.1049 20.3591 10.3475 20.2461 10.6299C20.133 10.9122 20.1059 11.2217 20.1681 11.5194C20.2304 11.8171 20.3792 12.0897 20.5959 12.3031C20.8127 12.5165 21.0877 12.661 21.3863 12.7186C21.6849 12.7762 21.9939 12.7442 22.2745 12.6268C22.555 12.5093 22.7946 12.3115 22.963 12.0583C23.1315 11.8051 23.2214 11.5077 23.2214 11.2036C23.2181 10.7912 23.0512 10.397 22.7573 10.1076C22.4634 9.81832 22.0666 9.65758 21.6543 9.66077ZM12.1714 7.98169H19.8286C22.3196 7.98169 24.339 9.96967 24.339 12.4216V20.2945C24.339 22.7469 22.3196 24.7344 19.8286 24.7344H12.1714C9.68038 24.7344 7.66098 22.7469 7.66098 20.2945V12.4216C7.66098 9.96967 9.68035 7.98169 12.1714 7.98169ZM11.4492 6.44616C8.48831 6.44616 6.08799 8.80929 6.08799 11.7239V20.9922C6.08799 23.9073 8.48828 26.27 11.4492 26.27H20.5508C23.5117 26.27 25.912 23.9073 25.912 20.9922V11.7239C25.912 8.80926 23.5117 6.44616 20.5508 6.44616H11.4492ZM16 0.870605C24.5535 0.870605 31.4875 7.80436 31.4875 16.3583C31.4875 24.9118 24.5535 31.8455 16 31.8455C7.44648 31.8455 0.512512 24.9118 0.512512 16.3583C0.512512 7.80438 7.44648 0.870605 16 0.870605Z" fill="#1F2937"/>
</svg>
