<svg width="216" height="32" viewBox="0 0 216 32" fill="none" xmlns="http://www.w3.org/2000/svg">
<path d="M10.3109 16.2753H23.6309V18.5793H10.3109V16.2753ZM10.5989 29.2713H7.93493V4.0713H25.2149V6.3753H10.5989V29.2713ZM17.5689 29.2713L29.0889 4.0713H31.7169L43.2369 29.2713H40.4289L29.8449 5.6193H30.9249L20.3409 29.2713H17.5689ZM22.1049 22.5393L22.8969 20.3793H37.5489L38.3409 22.5393H22.1049ZM48.5936 29.4873C46.7216 29.4873 44.9216 29.1873 43.1935 28.5873C41.4895 27.9633 40.1695 27.1713 39.2335 26.2113L40.2775 24.1593C41.1655 25.0233 42.3535 25.7553 43.8416 26.3553C45.3535 26.9313 46.9375 27.2193 48.5936 27.2193C50.1776 27.2193 51.4616 27.0273 52.4456 26.6433C53.4536 26.2353 54.1856 25.6953 54.6416 25.0233C55.1216 24.3513 55.3616 23.6073 55.3616 22.7913C55.3616 21.8073 55.0736 21.0153 54.4976 20.4153C53.9456 19.8153 53.2136 19.3473 52.3016 19.0113C51.3896 18.6513 50.3815 18.3393 49.2775 18.0753C48.1735 17.8113 47.0695 17.5353 45.9656 17.2473C44.8616 16.9353 43.8415 16.5273 42.9055 16.0233C41.9935 15.5193 41.2495 14.8593 40.6735 14.0433C40.1215 13.2033 39.8455 12.1113 39.8455 10.7673C39.8455 9.5193 40.1695 8.3793 40.8175 7.3473C41.4895 6.2913 42.5095 5.4513 43.8776 4.8273C45.2456 4.1793 46.9976 3.8553 49.1336 3.8553C50.5496 3.8553 51.9536 4.0593 53.3456 4.4673C54.7376 4.8513 55.9376 5.3913 56.9456 6.0873L56.0455 8.2113C54.9655 7.4913 53.8136 6.9633 52.5896 6.6273C51.3896 6.2913 50.2256 6.1233 49.0976 6.1233C47.5856 6.1233 46.3376 6.3273 45.3535 6.7353C44.3696 7.1433 43.6376 7.6953 43.1575 8.3913C42.7015 9.0633 42.4736 9.8313 42.4736 10.6953C42.4736 11.6793 42.7496 12.4713 43.3016 13.0713C43.8776 13.6713 44.6216 14.1393 45.5336 14.4753C46.4696 14.8113 47.4895 15.1113 48.5936 15.3753C49.6976 15.6393 50.7896 15.9273 51.8696 16.2393C52.9736 16.5513 53.9816 16.9593 54.8936 17.4633C55.8296 17.9433 56.5736 18.5913 57.1256 19.4073C57.7016 20.2233 57.9896 21.2913 57.9896 22.6113C57.9896 23.8353 57.6536 24.9753 56.9816 26.0313C56.3096 27.0633 55.2776 27.9033 53.8856 28.5513C52.5176 29.1753 50.7536 29.4873 48.5936 29.4873ZM76.466 4.0713H79.094V29.2713H76.466V4.0713ZM60.698 29.2713H58.034V4.0713H60.698V29.2713ZM76.718 17.6433H60.41V15.3033H76.718V17.6433ZM80.8391 29.2713V4.0713H83.5031V29.2713H80.8391ZM96.2384 29.4873C94.3424 29.4873 92.5784 29.1753 90.9464 28.5513C89.3384 27.9033 87.9344 27.0033 86.7344 25.8513C85.5584 24.6753 84.6344 23.3193 83.9624 21.7833C83.3144 20.2233 82.9904 18.5193 82.9904 16.6713C82.9904 14.8233 83.3144 13.1313 83.9624 11.5953C84.6344 10.0353 85.5584 8.6793 86.7344 7.5273C87.9344 6.3513 89.3384 5.4513 90.9464 4.8273C92.5544 4.1793 94.3184 3.8553 96.2384 3.8553C98.1344 3.8553 99.8864 4.1793 101.494 4.8273C103.102 5.4513 104.494 6.3393 105.67 7.4913C106.87 8.6433 107.794 9.9993 108.442 11.5593C109.114 13.1193 109.45 14.8233 109.45 16.6713C109.45 18.5193 109.114 20.2233 108.442 21.7833C107.794 23.3433 106.87 24.6993 105.67 25.8513C104.494 27.0033 103.102 27.9033 101.494 28.5513C99.8864 29.1753 98.1344 29.4873 96.2384 29.4873ZM96.2384 27.1113C97.7504 27.1113 99.1424 26.8593 100.414 26.3553C101.71 25.8273 102.826 25.0953 103.762 24.1593C104.722 23.1993 105.466 22.0953 105.994 20.8473C106.522 19.5753 106.786 18.1833 106.786 16.6713C106.786 15.1593 106.522 13.7793 105.994 12.5313C105.466 11.2593 104.722 10.1553 103.762 9.2193C102.826 8.2593 101.71 7.5273 100.414 7.0233C99.1424 6.4953 97.7504 6.2313 96.2384 6.2313C94.7264 6.2313 93.3224 6.4953 92.0264 7.0233C90.7304 7.5273 89.6024 8.2593 88.6424 9.2193C87.7064 10.1553 86.9624 11.2593 86.4104 12.5313C85.8824 13.7793 85.6184 15.1593 85.6184 16.6713C85.6184 18.1593 85.8824 19.5393 86.4104 20.8113C86.9624 22.0833 87.7064 23.1993 88.6424 24.1593C89.6024 25.0953 90.7304 25.8273 92.0264 26.3553C93.3224 26.8593 94.7264 27.1113 96.2384 27.1113ZM108.942 29.2713V4.0713H111.138L128.526 25.9593H127.374V4.0713H130.002V29.2713H127.806L110.454 7.3833H111.606V29.2713H108.942Z" fill="#374151"/>
<path d="M137.631 29.2713V4.0713H147.891C150.579 4.0713 152.931 4.6113 154.947 5.6913C156.987 6.7473 158.571 8.2233 159.699 10.1193C160.827 12.0153 161.391 14.1993 161.391 16.6713C161.391 19.1433 160.827 21.3273 159.699 23.2233C158.571 25.1193 156.987 26.6073 154.947 27.6873C152.931 28.7433 150.579 29.2713 147.891 29.2713H137.631ZM140.295 26.9673H147.747C149.979 26.9673 151.911 26.5353 153.543 25.6713C155.199 24.7833 156.483 23.5713 157.395 22.0353C158.307 20.4753 158.763 18.6873 158.763 16.6713C158.763 14.6313 158.307 12.8433 157.395 11.3073C156.483 9.7713 155.199 8.5713 153.543 7.7073C151.911 6.8193 149.979 6.3753 147.747 6.3753H140.295V26.9673ZM163.989 15.3393H177.309V17.6073H163.989V15.3393ZM164.277 26.9673H179.433V29.2713H161.613V4.0713H178.893V6.3753H164.277V26.9673ZM186.747 29.2713L175.587 4.0713H178.467L188.907 27.7953H187.323L197.835 4.0713H200.535L189.375 29.2713H186.747Z" fill="black"/>
</svg>
