<svg width="34" height="35" viewBox="0 0 34 35" fill="none" xmlns="http://www.w3.org/2000/svg">
<path fill-rule="evenodd" clip-rule="evenodd" d="M1.07865 16.7032V34.7253H15.0277C18.6822 34.7253 21.8799 34.0075 24.6208 32.5718C27.3942 31.1035 29.5478 29.0805 31.0814 26.5027C32.615 23.925 33.3817 20.9557 33.3817 17.5949C33.3817 14.2341 32.615 11.2648 31.0814 8.68709C29.5478 6.10937 27.3942 4.10266 24.6208 2.66697C21.8799 1.19865 18.6822 0.464485 15.0277 0.464485H1.07865V13.434H0.984234V16.7032H1.07865ZM4.70051 16.7032H2.61882H1.07865V13.434H2.61882H4.70051V16.7032ZM4.70051 16.7032H17.0203C17.923 16.7032 18.6549 15.9714 18.6549 15.0686C18.6549 14.1658 17.923 13.434 17.0203 13.434H4.70051V3.59691H14.8319C17.8665 3.59691 20.4931 4.20055 22.7119 5.40784C24.9634 6.5825 26.709 8.21396 27.9489 10.3022C29.1889 12.3905 29.8088 14.8214 29.8088 17.5949C29.8088 20.3358 29.1889 22.7667 27.9489 24.8876C26.709 26.9759 24.9634 28.6236 22.7119 29.8309C20.4931 31.0056 17.8665 31.5929 14.8319 31.5929H4.70051V16.7032Z" fill="#374151"/>
</svg>
