<svg width="20" height="20" viewBox="0 0 20 20" fill="none" xmlns="http://www.w3.org/2000/svg">
<path fill-rule="evenodd" clip-rule="evenodd" d="M11 1.73987C11 0.911441 10.3284 0.239868 9.5 0.239868C8.67157 0.239868 8 0.911441 8 1.73987V8.73992H2C1.17157 8.73992 0.5 9.4115 0.5 10.2399C0.5 11.0684 1.17157 11.7399 2 11.7399H8V17.7399C8 18.5683 8.67157 19.2399 9.5 19.2399C10.3284 19.2399 11 18.5683 11 17.7399V11.7399H18C18.8284 11.7399 19.5 11.0684 19.5 10.2399C19.5 9.4115 18.8284 8.73992 18 8.73992H11V1.73987Z" fill="white"/>
</svg>
