<svg width="24" height="29" viewBox="0 0 24 29" fill="none" xmlns="http://www.w3.org/2000/svg">
<path d="M12 0.962482C10.1814 0.962482 8.43723 1.68389 7.15127 2.96799C5.8653 4.2521 5.14286 5.99373 5.14286 7.80973C5.14286 9.62573 5.8653 11.3674 7.15127 12.6515C8.43723 13.9356 10.1814 14.657 12 14.657C13.8186 14.657 15.5628 13.9356 16.8487 12.6515C18.1347 11.3674 18.8571 9.62573 18.8571 7.80973C18.8571 5.99373 18.1347 4.2521 16.8487 2.96799C15.5628 1.68389 13.8186 0.962482 12 0.962482ZM6.85714 7.80973C6.85714 6.44773 7.39898 5.14151 8.36345 4.17843C9.32792 3.21535 10.636 2.67429 12 2.67429C13.364 2.67429 14.6721 3.21535 15.6365 4.17843C16.601 5.14151 17.1429 6.44773 17.1429 7.80973C17.1429 9.17173 16.601 10.478 15.6365 11.441C14.6721 12.4041 13.364 12.9452 12 12.9452C10.636 12.9452 9.32792 12.4041 8.36345 11.441C7.39898 10.478 6.85714 9.17173 6.85714 7.80973ZM3.444 16.3688C2.99252 16.367 2.54512 16.4542 2.12747 16.6254C1.70982 16.7966 1.33012 17.0485 1.01016 17.3666C0.690196 17.6847 0.43626 18.0627 0.262914 18.4789C0.0895678 18.8952 0.000222021 19.3416 0 19.7924C0 22.6871 1.428 24.8696 3.66 26.2922C5.85771 27.6907 8.82 28.3515 12 28.3515C15.18 28.3515 18.1423 27.6907 20.34 26.2922C22.572 24.8714 24 22.6854 24 19.7924C24 18.8844 23.6388 18.0136 22.9958 17.3715C22.3528 16.7295 21.4807 16.3688 20.5714 16.3688H3.444ZM1.71429 19.7924C1.71429 18.8458 2.48229 18.0806 3.444 18.0806H20.5714C21.0261 18.0806 21.4621 18.261 21.7836 18.582C22.1051 18.903 22.2857 19.3384 22.2857 19.7924C22.2857 22.0332 21.2194 23.7022 19.4177 24.8474C17.5834 26.0166 14.9743 26.6397 12 26.6397C9.02571 26.6397 6.41657 26.0166 4.58229 24.8474C2.78229 23.7005 1.71429 22.0349 1.71429 19.7924Z" fill="black"/>
</svg>
